<svg width="81" height="63" viewBox="0 0 81 63" fill="none" xmlns="http://www.w3.org/2000/svg">
<path opacity="0.3" fill-rule="evenodd" clip-rule="evenodd" d="M43.5638 8.43449C29.4071 11.3479 31.759 19.5747 27.3367 26.4023C19.9807 37.7591 -5.21506 39.9798 1.44192 54.1783C8.0989 68.3767 46.1589 63.277 64.5611 53.9872C81.5337 45.419 84.0557 29.5885 75.7192 16.6815C69.1256 6.47294 57.7206 5.5211 43.5638 8.43449Z" fill="#F2A679"/>
<g clip-path="url(#clip0)">
<path d="M36.7349 33.532H26.76C26.1132 33.5238 25.4855 33.751 24.9928 34.1715C24.0555 34.9628 19.4165 42.4952 18.3544 44.0779C17.8645 45.7485 19.4723 47.0674 21.039 47.0674H60.6292C62.1985 47.0674 63.805 45.7498 63.3138 44.0779C62.2436 42.4939 57.6114 34.9655 56.6753 34.1728C56.1827 33.7513 55.5542 33.5236 54.9069 33.532H43.9296" stroke="#162D6D" stroke-width="2" stroke-linecap="round" stroke-linejoin="round"/>
<path d="M40.8334 0.932526C43.0623 0.933623 45.254 1.50598 47.2006 2.59532C49.1473 3.68465 50.7843 5.25487 51.9566 7.15707C53.1289 9.05927 53.7975 11.2304 53.899 13.4646C54.0006 15.6988 53.5318 17.922 52.5369 19.9234C50.8534 23.2979 42.3364 33.3935 40.8334 39.7735C38.3971 33.576 30.8134 23.2939 29.1312 19.9234C28.1361 17.9221 27.6669 15.699 27.7682 13.4647C27.8696 11.2305 28.538 9.05928 29.7102 7.157C30.8824 5.25472 32.5195 3.68445 34.4661 2.59511C36.4128 1.50577 38.6045 0.933484 40.8334 0.932526V0.932526Z" stroke="#162D6D" stroke-width="2" stroke-linecap="round" stroke-linejoin="round"/>
<path d="M40.8335 7.40848C42.1152 7.40848 43.3681 7.78985 44.4338 8.50436C45.4995 9.21887 46.3301 10.2344 46.8206 11.4226C47.3111 12.6108 47.4394 13.9183 47.1894 15.1797C46.9393 16.441 46.3221 17.5997 45.4158 18.5091C44.5095 19.4185 43.3548 20.0378 42.0977 20.2887C40.8406 20.5396 39.5376 20.4108 38.3535 19.9187C37.1694 19.4265 36.1573 18.593 35.4452 17.5237C34.7331 16.4544 34.353 15.1972 34.353 13.9111C34.353 12.1865 35.0358 10.5325 36.2511 9.31304C37.4664 8.09357 39.1147 7.40848 40.8335 7.40848V7.40848Z" stroke="#162D6D" stroke-width="2" stroke-linecap="round" stroke-linejoin="round"/>
</g>
<defs>
<clipPath id="clip0">
<rect width="47" height="48" fill="white" transform="translate(17.3334)"/>
</clipPath>
</defs>
</svg>
