<svg width="80" height="63" viewBox="0 0 80 63" fill="none" xmlns="http://www.w3.org/2000/svg">
<path opacity="0.3" fill-rule="evenodd" clip-rule="evenodd" d="M2.04927 32.7387C6.21125 42.6485 17.9639 41.0021 27.7175 44.0977C43.9415 49.2469 47.1141 66.8839 67.3975 62.2241C87.681 57.5642 80.3957 30.9222 67.1246 18.0406C54.8843 6.15979 32.2693 4.39441 13.8307 10.23C-0.752935 14.8455 -2.11271 22.829 2.04927 32.7387Z" fill="#A68098"/>
<g clip-path="url(#clip0)">
<path d="M40.0001 4.97784V11.9179" stroke="#162D6D" stroke-width="2" stroke-linecap="round" stroke-linejoin="round"/>
<path d="M36.5056 8.44858H43.4944" stroke="#162D6D" stroke-width="2" stroke-linecap="round" stroke-linejoin="round"/>
<path d="M30.2406 10.2485L29.5659 4.40689C29.4384 3.30583 34.7351 0.923035 40 0.923035C45.2649 0.923035 50.5616 3.30714 50.4341 4.40689L49.7594 10.2485" stroke="#162D6D" stroke-width="2" stroke-linecap="round" stroke-linejoin="round"/>
<path d="M17.7027 47.0756L16.9297 41.7706V40.8621C16.9297 38.8406 19.3284 37.6736 21.3286 37.3268C23.1562 37.0117 29.9949 35.7444 32.209 34.4377L32.3418 34.4205C35.3833 46.5956 44.5716 46.5692 47.6556 34.4205L47.7884 34.4377C50.0024 35.7458 56.8398 37.0117 58.6674 37.3268C60.6676 37.6736 63.0663 38.8419 63.0663 40.8621V41.7706L62.2986 47.0756" stroke="#162D6D" stroke-width="2" stroke-linecap="round" stroke-linejoin="round"/>
<path d="M54.6045 47.0756H47.8879" stroke="#162D6D" stroke-width="2" stroke-linecap="round" stroke-linejoin="round"/>
<path d="M48.3462 25.8995C45.4628 35.7524 34.5333 35.7524 31.6538 25.8995L31.4493 25.9311C31.3794 25.9358 31.3093 25.9358 31.2394 25.9311C30.6099 25.9417 30.0653 25.521 29.6523 24.8947C29.1031 24.044 28.8151 23.0529 28.8235 22.0425C28.8089 20.8227 29.2525 19.7718 30.3296 19.7085C31.0721 19.6663 30.8503 18.7946 30.8503 17.7727C30.8503 15.7261 31.2394 14.6897 31.8079 14.2559C32.7761 13.2009 34.3938 14.2295 35.467 15.047C37.0342 16.2338 37.434 16.9525 40 16.9934C42.5661 16.9525 42.9658 16.2351 44.5331 15.047C45.6062 14.2334 47.2239 13.2009 48.1922 14.2559C48.7606 14.6897 49.1498 15.7261 49.1498 17.7727C49.1498 18.7946 48.928 19.6663 49.6704 19.7085C50.7476 19.7718 51.1912 20.8227 51.1766 22.0425C51.185 23.0529 50.897 24.044 50.3478 24.8947C49.9347 25.521 49.3902 25.9404 48.754 25.9311C48.6841 25.9358 48.614 25.9358 48.5441 25.9311L48.3396 25.8995H48.3462Z" stroke="#162D6D" stroke-width="2" stroke-linecap="round" stroke-linejoin="round"/>
</g>
<defs>
<clipPath id="clip0">
<rect width="48" height="48" fill="white" transform="translate(16)"/>
</clipPath>
</defs>
</svg>
