<svg width="35" height="58" viewBox="0 0 35 58" fill="none" xmlns="http://www.w3.org/2000/svg"><path d="M2.96 57.72v-3.6h5.68c1.7067 0 3.12-.3467 4.24-1.04s1.68-2.2133 1.68-4.56V7.08c-2.08 2.45334-3.92 4.4533-5.52 6-1.6 1.5467-3.2 2.32-4.8 2.32-1.22667 0-2.24-.4267-3.04-1.28C.4 13.2133 0 12.04 0 10.6c1.6-.4267 3.30667-1.06666 5.12-1.92 1.86667-.85333 4.13333-2.26666 6.8-4.24l5.6-4.160001h6.16V48.52c0 2.2933.5333 3.8133 1.6 4.56 1.0667.6933 2.48 1.04 4.24 1.04h4.64v3.6H2.96z" fill="#464A4A"/></svg>