<svg width="36" height="58" viewBox="0 0 36 58" fill="none" xmlns="http://www.w3.org/2000/svg"><path d="M0 57.96v-6.48l12.96-14.56c2.9333-3.3067 5.2267-6.1867 6.88-8.64 1.7067-2.5067 2.9067-4.8533 3.6-7.04.7467-2.24 1.12-4.64 1.12-7.2 0-3.04-.64-5.41333-1.92-7.12-1.28-1.76-3.1733-2.64-5.68-2.64-2.2933 0-4.0533.56-5.28 1.68-1.1733 1.06666-2 2.53333-2.48 4.4-.48 1.8667-.72 4-.72 6.4-2.18667 0-4.02667-.4267-5.52-1.28-1.49333-.8533-2.24-2.4267-2.24-4.72 0-2.98667 1.36-5.52 4.08-7.6C7.52 1.08 11.5733.039999 16.96.039999c5.28 0 9.3867 1.226671 12.32 3.680001 2.9867 2.4 4.48 5.62667 4.48 9.68 0 2.4533-.56 4.88-1.68 7.28-1.12 2.3467-2.8267 4.9067-5.12 7.68-2.24 2.7733-5.0933 5.9733-8.56 9.6l-12 12.96h18.48c2.1867 0 3.76-.56 4.72-1.68.96-1.1733 1.6267-2.5867 2-4.24l.4-1.68h3.76l-.4 14.64H0z" fill="#464A4A"/></svg>