<svg width="37" height="59" viewBox="0 0 37 59" fill="none" xmlns="http://www.w3.org/2000/svg"><path d="M15.68 58.72c-5.4933 0-9.49333-.9067-12-2.72C1.22667 54.1867 0 52.08 0 49.68c0-1.76.506667-3.0933 1.52-4 1.06667-.96 2.4-1.44 4-1.44 0 2.9333.88 5.3067 2.64 7.12 1.81333 1.8133 4.2933 2.72 7.44 2.72 1.9733 0 3.8133-.4 5.52-1.2 1.76-.8 3.1733-2.1067 4.24-3.92 1.0667-1.8133 1.6-4.32 1.6-7.52 0-3.2533-1.2533-5.8667-3.76-7.84-2.4533-2.0267-5.84-3.04-10.16-3.04H9.76v-4.32h3.36c3.4667 0 6.32-1.0933 8.56-3.28 2.24-2.24 3.36-5.2267 3.36-8.96 0-3.04-.64-5.41333-1.92-7.12-1.28-1.76-3.3333-2.64-6.16-2.64-2.2933 0-4.0267.58667-5.2 1.76-1.1733 1.12-1.97333 2.58667-2.4 4.4-.42667 1.8133-.64 3.7867-.64 5.92-2.29333 0-4.18667-.4267-5.68-1.28C1.6 14.1867.88 12.6933.88 10.56c0-2.98666 1.36-5.49333 4.08-7.52C7.68 1.01333 11.7333 0 17.12 0c5.1733 0 9.3333 1.12 12.48 3.36 3.1467 2.24 4.72 5.38667 4.72 9.44 0 3.6267-1.2 6.7467-3.6 9.36-2.4 2.56-5.4133 4.32-9.04 5.28 1.5467.2133 3.1467.5867 4.8 1.12 1.7067.5333 3.3067 1.3333 4.8 2.4 1.4933 1.0667 2.6933 2.48 3.6 4.24.96 1.7067 1.44 3.8133 1.44 6.32 0 3.2533-.6133 6-1.84 8.24-1.2267 2.1867-2.8533 3.9467-4.88 5.28-1.9733 1.28-4.1867 2.2133-6.64 2.8-2.4533.5867-4.88.88-7.28.88z" fill="#1E502B"/></svg>