<svg width="43" height="58" viewBox="0 0 43 58" fill="none" xmlns="http://www.w3.org/2000/svg"><path d="M15.12 57.56v-3.6h2.24c1.8133 0 3.36-.32 4.64-.96 1.28-.6933 1.92-2.2933 1.92-4.8v-6.08H0v-3.76L24.16.440002h8.56V37.4h9.52v4.72h-9.52v6.08c0 2.5067.64 4.1067 1.92 4.8 1.28.64 2.8267.96 4.64.96h1.04v3.6h-25.2zM5.68 37.4h18.24V22.84c0-2.3467.0533-5.0133.16-8 .1067-3.04.24-5.78666.4-8.24-.2667.53334-.6933 1.33334-1.28 2.4-.5867 1.0667-1.2533 2.24-2 3.52-.6933 1.2267-1.3867 2.4-2.08 3.52-.64 1.12-1.1733 2-1.6 2.64L5.68 37.4z" fill="#1E502B"/></svg>