<svg width="36" height="58" viewBox="0 0 36 58" fill="none" xmlns="http://www.w3.org/2000/svg"><path d="M15.44 57.96c-3.9467 0-7.04-.4267-9.28-1.28-2.24-.9067-3.84-2-4.8-3.28C.453333 52.0666 0 50.7333 0 49.4c0-3.2534 1.81333-4.88 5.44-4.88 0 2.24.74667 4.2133 2.24 5.92 1.54667 1.7066 3.9467 2.56 7.2 2.56 2.0267 0 3.8667-.4 5.52-1.2 1.7067-.8534 3.04-2.24 4-4.16.96-1.9734 1.44-4.64 1.44-8 0-4.1067-1.0667-7.1734-3.2-9.2-2.1333-2.0267-5.0133-3.04-8.64-3.04-2.56 0-4.53333.1866-5.92.56-1.33333.32-2.53333.6933-3.6 1.12l-2.4-.8L4.64.039978h27.68L32.72 12.84h-3.68l-.4-2.56c-.2133-1.06668-.5867-1.86669-1.12-2.40002-.48-.53334-1.4933-.8-3.04-.8H8.64L7.2 23.96c.8-.2667 1.97333-.5334 3.52-.8 1.6-.2667 3.4933-.4 5.68-.4 3.6267 0 6.8533.64 9.68 1.92 2.8267 1.2266 5.0667 3.0933 6.72 5.6 1.6533 2.5066 2.48 5.6266 2.48 9.36 0 3.9466-.8533 7.28-2.56 10-1.7067 2.72-4.0533 4.8-7.04 6.24-2.9867 1.3866-6.4 2.08-10.24 2.08z" fill="#1E502B"/></svg>