<svg width="37" height="60" viewBox="0 0 37 60" fill="none" xmlns="http://www.w3.org/2000/svg"><path d="M18.88 59.36c-3.68 0-6.9333-.9867-9.76-2.96-2.82667-2.0267-5.06667-5.1467-6.72-9.36C.8 42.7733 0 37.2267 0 30.4c0-3.9467.426667-7.7067 1.28-11.28.85333-3.5733 2.16-6.7466 3.92-9.51999 1.76-2.77333 3.97333-4.95999 6.64-6.55999 2.72-1.6 5.8933-2.400005 9.52-2.400005 4.64 0 8.0533.879995 10.24 2.639995 2.1867 1.70667 3.28 3.65334 3.28 5.84001 0 1.54668-.5867 2.79998-1.76 3.75998s-2.96 1.44-5.36 1.44c0-2.5067-.5067-4.71998-1.52-6.63999-.96-1.97333-2.64-2.96-5.04-2.96-3.7867 0-6.6933 1.94667-8.72 5.83999-1.9733 3.8933-3.12 9.5733-3.44 17.04 1.28-1.0133 2.8267-1.8933 4.64-2.64 1.8133-.8 4.0533-1.2 6.72-1.2 4.8533 0 8.72 1.4667 11.6 4.4 2.9333 2.88 4.4 6.88 4.4 12 0 3.7867-.6933 7.12-2.08 10-1.3333 2.88-3.3067 5.1467-5.92 6.8-2.6133 1.6-5.7867 2.4-9.52 2.4zm.24-4.64c2.6133 0 4.64-1.0933 6.08-3.28 1.44-2.1866 2.16-5.68 2.16-10.48 0-4.48-.7733-7.7333-2.32-9.76-1.5467-2.08-3.76-3.12-6.64-3.12-1.92 0-3.7333.48-5.44 1.44-1.6533.9067-2.98667 1.8933-4 2.96.10667 7.8933 1.0667 13.5733 2.88 17.04 1.8667 3.4667 4.2933 5.2 7.28 5.2z" fill="#1E502B"/></svg>