<svg width="1201" height="12" viewBox="0 0 1201 12" fill="none" xmlns="http://www.w3.org/2000/svg">
<path d="M0.37 11.77L4.836 0.514H5.872L1.392 11.77H0.37ZM6.56063 11.77L11.0266 0.514H12.0626L7.58263 11.77H6.56063ZM12.7513 11.77L17.2173 0.514H18.2533L13.7733 11.77H12.7513ZM18.9419 11.77L23.4079 0.514H24.4439L19.9639 11.77H18.9419ZM25.1325 11.77L29.5985 0.514H30.6345L26.1545 11.77H25.1325ZM31.3231 11.77L35.7891 0.514H36.8251L32.3451 11.77H31.3231ZM37.5137 11.77L41.9797 0.514H43.0157L38.5357 11.77H37.5137ZM43.7044 11.77L48.1704 0.514H49.2064L44.7264 11.77H43.7044ZM49.895 11.77L54.361 0.514H55.397L50.917 11.77H49.895ZM56.0856 11.77L60.5516 0.514H61.5876L57.1076 11.77H56.0856ZM62.2762 11.77L66.7423 0.514H67.7783L63.2983 11.77H62.2762ZM68.4669 11.77L72.9329 0.514H73.9689L69.4889 11.77H68.4669ZM74.6575 11.77L79.1235 0.514H80.1595L75.6795 11.77H74.6575ZM80.8481 11.77L85.3141 0.514H86.3501L81.8701 11.77H80.8481ZM87.0387 11.77L91.5047 0.514H92.5407L88.0607 11.77H87.0387ZM93.2294 11.77L97.6954 0.514H98.7314L94.2514 11.77H93.2294ZM99.42 11.77L103.886 0.514H104.922L100.442 11.77H99.42ZM105.611 11.77L110.077 0.514H111.113L106.633 11.77H105.611ZM111.801 11.77L116.267 0.514H117.303L112.823 11.77H111.801ZM117.992 11.77L122.458 0.514H123.494L119.014 11.77H117.992ZM124.182 11.77L128.649 0.514H129.685L125.205 11.77H124.182ZM130.373 11.77L134.839 0.514H135.875L131.395 11.77H130.373ZM136.564 11.77L141.03 0.514H142.066L137.586 11.77H136.564ZM142.754 11.77L147.22 0.514H148.256L143.776 11.77H142.754ZM148.945 11.77L153.411 0.514H154.447L149.967 11.77H148.945ZM155.136 11.77L159.602 0.514H160.638L156.158 11.77H155.136ZM161.326 11.77L165.792 0.514H166.828L162.348 11.77H161.326ZM167.517 11.77L171.983 0.514H173.019L168.539 11.77H167.517ZM173.707 11.77L178.173 0.514H179.209L174.729 11.77H173.707ZM179.898 11.77L184.364 0.514H185.4L180.92 11.77H179.898ZM186.089 11.77L190.555 0.514H191.591L187.111 11.77H186.089ZM192.279 11.77L196.745 0.514H197.781L193.301 11.77H192.279ZM198.47 11.77L202.936 0.514H203.972L199.492 11.77H198.47ZM204.661 11.77L209.127 0.514H210.163L205.683 11.77H204.661ZM210.851 11.77L215.317 0.514H216.353L211.873 11.77H210.851ZM217.042 11.77L221.508 0.514H222.544L218.064 11.77H217.042ZM223.233 11.77L227.699 0.514H228.735L224.255 11.77H223.233ZM229.423 11.77L233.889 0.514H234.925L230.445 11.77H229.423ZM235.614 11.77L240.08 0.514H241.116L236.636 11.77H235.614ZM241.804 11.77L246.27 0.514H247.306L242.826 11.77H241.804ZM247.995 11.77L252.461 0.514H253.497L249.017 11.77H247.995ZM254.186 11.77L258.652 0.514H259.688L255.208 11.77H254.186ZM260.376 11.77L264.842 0.514H265.878L261.398 11.77H260.376ZM266.567 11.77L271.033 0.514H272.069L267.589 11.77H266.567ZM272.758 11.77L277.224 0.514H278.26L273.78 11.77H272.758ZM278.948 11.77L283.414 0.514H284.45L279.97 11.77H278.948ZM285.139 11.77L289.605 0.514H290.641L286.161 11.77H285.139ZM291.329 11.77L295.795 0.514H296.831L292.351 11.77H291.329ZM297.52 11.77L301.986 0.514H303.022L298.542 11.77H297.52ZM303.711 11.77L308.177 0.514H309.213L304.733 11.77H303.711ZM309.901 11.77L314.367 0.514H315.403L310.923 11.77H309.901ZM316.092 11.77L320.558 0.514H321.594L317.114 11.77H316.092ZM322.283 11.77L326.749 0.514H327.785L323.305 11.77H322.283ZM328.473 11.77L332.939 0.514H333.975L329.495 11.77H328.473ZM334.664 11.77L339.13 0.514H340.166L335.686 11.77H334.664ZM340.854 11.77L345.32 0.514H346.356L341.876 11.77H340.854ZM347.045 11.77L351.511 0.514H352.547L348.067 11.77H347.045ZM353.236 11.77L357.702 0.514H358.738L354.258 11.77H353.236ZM359.426 11.77L363.892 0.514H364.928L360.448 11.77H359.426ZM365.617 11.77L370.083 0.514H371.119L366.639 11.77H365.617ZM371.807 11.77L376.274 0.514H377.31L372.83 11.77H371.807ZM377.998 11.77L382.464 0.514H383.5L379.02 11.77H377.998ZM384.189 11.77L388.655 0.514H389.691L385.211 11.77H384.189ZM390.379 11.77L394.845 0.514H395.881L391.401 11.77H390.379ZM396.57 11.77L401.036 0.514H402.072L397.592 11.77H396.57ZM402.761 11.77L407.227 0.514H408.263L403.783 11.77H402.761ZM408.951 11.77L413.417 0.514H414.453L409.973 11.77H408.951ZM415.142 11.77L419.608 0.514H420.644L416.164 11.77H415.142ZM421.332 11.77L425.798 0.514H426.834L422.354 11.77H421.332ZM427.523 11.77L431.989 0.514H433.025L428.545 11.77H427.523ZM433.714 11.77L438.18 0.514H439.216L434.736 11.77H433.714ZM439.904 11.77L444.37 0.514H445.406L440.926 11.77H439.904ZM446.095 11.77L450.561 0.514H451.597L447.117 11.77H446.095ZM452.286 11.77L456.752 0.514H457.788L453.308 11.77H452.286ZM458.476 11.77L462.942 0.514H463.978L459.498 11.77H458.476ZM464.667 11.77L469.133 0.514H470.169L465.689 11.77H464.667ZM470.857 11.77L475.323 0.514H476.359L471.879 11.77H470.857ZM477.048 11.77L481.514 0.514H482.55L478.07 11.77H477.048ZM483.239 11.77L487.705 0.514H488.741L484.261 11.77H483.239ZM489.429 11.77L493.895 0.514H494.931L490.451 11.77H489.429ZM495.62 11.77L500.086 0.514H501.122L496.642 11.77H495.62ZM501.811 11.77L506.277 0.514H507.313L502.833 11.77H501.811ZM508.001 11.77L512.467 0.514H513.503L509.023 11.77H508.001ZM514.192 11.77L518.658 0.514H519.694L515.214 11.77H514.192ZM520.383 11.77L524.849 0.514H525.885L521.405 11.77H520.383ZM526.573 11.77L531.039 0.514H532.075L527.595 11.77H526.573ZM532.764 11.77L537.23 0.514H538.266L533.786 11.77H532.764ZM538.954 11.77L543.42 0.514H544.456L539.976 11.77H538.954ZM545.145 11.77L549.611 0.514H550.647L546.167 11.77H545.145ZM551.336 11.77L555.802 0.514H556.838L552.358 11.77H551.336ZM557.526 11.77L561.992 0.514H563.028L558.548 11.77H557.526ZM563.717 11.77L568.183 0.514H569.219L564.739 11.77H563.717ZM569.907 11.77L574.373 0.514H575.409L570.929 11.77H569.907ZM576.098 11.77L580.564 0.514H581.6L577.12 11.77H576.098ZM582.289 11.77L586.755 0.514H587.791L583.311 11.77H582.289ZM588.479 11.77L592.945 0.514H593.981L589.501 11.77H588.479ZM594.67 11.77L599.136 0.514H600.172L595.692 11.77H594.67ZM600.861 11.77L605.327 0.514H606.363L601.883 11.77H600.861ZM607.051 11.77L611.517 0.514H612.553L608.073 11.77H607.051ZM613.242 11.77L617.708 0.514H618.744L614.264 11.77H613.242ZM619.432 11.77L623.899 0.514H624.935L620.455 11.77H619.432ZM625.623 11.77L630.089 0.514H631.125L626.645 11.77H625.623ZM631.814 11.77L636.28 0.514H637.316L632.836 11.77H631.814ZM638.004 11.77L642.47 0.514H643.506L639.026 11.77H638.004ZM644.195 11.77L648.661 0.514H649.697L645.217 11.77H644.195ZM650.386 11.77L654.852 0.514H655.888L651.408 11.77H650.386ZM656.576 11.77L661.042 0.514H662.078L657.598 11.77H656.576ZM662.767 11.77L667.233 0.514H668.269L663.789 11.77H662.767ZM668.958 11.77L673.424 0.514H674.46L669.98 11.77H668.958ZM675.148 11.77L679.614 0.514H680.65L676.17 11.77H675.148ZM681.339 11.77L685.805 0.514H686.841L682.361 11.77H681.339ZM687.529 11.77L691.995 0.514H693.031L688.551 11.77H687.529ZM693.72 11.77L698.186 0.514H699.222L694.742 11.77H693.72ZM699.911 11.77L704.377 0.514H705.413L700.933 11.77H699.911ZM706.101 11.77L710.567 0.514H711.603L707.123 11.77H706.101ZM712.292 11.77L716.758 0.514H717.794L713.314 11.77H712.292ZM718.482 11.77L722.948 0.514H723.984L719.504 11.77H718.482ZM724.673 11.77L729.139 0.514H730.175L725.695 11.77H724.673ZM730.864 11.77L735.33 0.514H736.366L731.886 11.77H730.864ZM737.054 11.77L741.52 0.514H742.556L738.076 11.77H737.054ZM743.245 11.77L747.711 0.514H748.747L744.267 11.77H743.245ZM749.436 11.77L753.902 0.514H754.938L750.458 11.77H749.436ZM755.626 11.77L760.092 0.514H761.128L756.648 11.77H755.626ZM761.817 11.77L766.283 0.514H767.319L762.839 11.77H761.817ZM768.008 11.77L772.474 0.514H773.51L769.03 11.77H768.008ZM774.198 11.77L778.664 0.514H779.7L775.22 11.77H774.198ZM780.389 11.77L784.855 0.514H785.891L781.411 11.77H780.389ZM786.579 11.77L791.045 0.514H792.081L787.601 11.77H786.579ZM792.77 11.77L797.236 0.514H798.272L793.792 11.77H792.77ZM798.961 11.77L803.427 0.514H804.463L799.983 11.77H798.961ZM805.151 11.77L809.617 0.514H810.653L806.173 11.77H805.151ZM811.342 11.77L815.808 0.514H816.844L812.364 11.77H811.342ZM817.532 11.77L821.998 0.514H823.034L818.554 11.77H817.532ZM823.723 11.77L828.189 0.514H829.225L824.745 11.77H823.723ZM829.914 11.77L834.38 0.514H835.416L830.936 11.77H829.914ZM836.104 11.77L840.57 0.514H841.606L837.126 11.77H836.104ZM842.295 11.77L846.761 0.514H847.797L843.317 11.77H842.295ZM848.486 11.77L852.952 0.514H853.988L849.508 11.77H848.486ZM854.676 11.77L859.142 0.514H860.178L855.698 11.77H854.676ZM860.867 11.77L865.333 0.514H866.369L861.889 11.77H860.867ZM867.057 11.77L871.524 0.514H872.56L868.08 11.77H867.057ZM873.248 11.77L877.714 0.514H878.75L874.27 11.77H873.248ZM879.439 11.77L883.905 0.514H884.941L880.461 11.77H879.439ZM885.629 11.77L890.095 0.514H891.131L886.651 11.77H885.629ZM891.82 11.77L896.286 0.514H897.322L892.842 11.77H891.82ZM898.011 11.77L902.477 0.514H903.513L899.033 11.77H898.011ZM904.201 11.77L908.667 0.514H909.703L905.223 11.77H904.201ZM910.392 11.77L914.858 0.514H915.894L911.414 11.77H910.392ZM916.582 11.77L921.048 0.514H922.084L917.604 11.77H916.582ZM922.773 11.77L927.239 0.514H928.275L923.795 11.77H922.773ZM928.964 11.77L933.43 0.514H934.466L929.986 11.77H928.964ZM935.154 11.77L939.62 0.514H940.656L936.176 11.77H935.154ZM941.345 11.77L945.811 0.514H946.847L942.367 11.77H941.345ZM947.536 11.77L952.002 0.514H953.038L948.558 11.77H947.536ZM953.726 11.77L958.192 0.514H959.228L954.748 11.77H953.726ZM959.917 11.77L964.383 0.514H965.419L960.939 11.77H959.917ZM966.107 11.77L970.573 0.514H971.609L967.129 11.77H966.107ZM972.298 11.77L976.764 0.514H977.8L973.32 11.77H972.298ZM978.489 11.77L982.955 0.514H983.991L979.511 11.77H978.489ZM984.679 11.77L989.145 0.514H990.181L985.701 11.77H984.679ZM990.87 11.77L995.336 0.514H996.372L991.892 11.77H990.87ZM997.061 11.77L1001.53 0.514H1002.56L998.083 11.77H997.061ZM1003.25 11.77L1007.72 0.514H1008.75L1004.27 11.77H1003.25ZM1009.44 11.77L1013.91 0.514H1014.94L1010.46 11.77H1009.44ZM1015.63 11.77L1020.1 0.514H1021.13L1016.65 11.77H1015.63ZM1021.82 11.77L1026.29 0.514H1027.33L1022.85 11.77H1021.82ZM1028.01 11.77L1032.48 0.514H1033.52L1029.04 11.77H1028.01ZM1034.2 11.77L1038.67 0.514H1039.71L1035.23 11.77H1034.2ZM1040.4 11.77L1044.86 0.514H1045.9L1041.42 11.77H1040.4ZM1046.59 11.77L1051.05 0.514H1052.09L1047.61 11.77H1046.59ZM1052.78 11.77L1057.24 0.514H1058.28L1053.8 11.77H1052.78ZM1058.97 11.77L1063.43 0.514H1064.47L1059.99 11.77H1058.97ZM1065.16 11.77L1069.62 0.514H1070.66L1066.18 11.77H1065.16ZM1071.35 11.77L1075.81 0.514H1076.85L1072.37 11.77H1071.35ZM1077.54 11.77L1082 0.514H1083.04L1078.56 11.77H1077.54ZM1083.73 11.77L1088.2 0.514H1089.23L1084.75 11.77H1083.73ZM1089.92 11.77L1094.39 0.514H1095.42L1090.94 11.77H1089.92ZM1096.11 11.77L1100.58 0.514H1101.61L1097.13 11.77H1096.11ZM1102.3 11.77L1106.77 0.514H1107.8L1103.32 11.77H1102.3ZM1108.49 11.77L1112.96 0.514H1113.99L1109.51 11.77H1108.49ZM1114.68 11.77L1119.15 0.514H1120.18L1115.7 11.77H1114.68ZM1120.87 11.77L1125.34 0.514H1126.38L1121.9 11.77H1120.87ZM1127.06 11.77L1131.53 0.514H1132.57L1128.09 11.77H1127.06ZM1133.25 11.77L1137.72 0.514H1138.76L1134.28 11.77H1133.25ZM1139.44 11.77L1143.91 0.514H1144.95L1140.47 11.77H1139.44ZM1145.64 11.77L1150.1 0.514H1151.14L1146.66 11.77H1145.64ZM1151.83 11.77L1156.29 0.514H1157.33L1152.85 11.77H1151.83ZM1158.02 11.77L1162.48 0.514H1163.52L1159.04 11.77H1158.02ZM1164.21 11.77L1168.67 0.514H1169.71L1165.23 11.77H1164.21ZM1170.4 11.77L1174.86 0.514H1175.9L1171.42 11.77H1170.4ZM1176.59 11.77L1181.05 0.514H1182.09L1177.61 11.77H1176.59ZM1182.78 11.77L1187.25 0.514H1188.28L1183.8 11.77H1182.78ZM1188.97 11.77L1193.44 0.514H1194.47L1189.99 11.77H1188.97ZM1195.16 11.77L1199.63 0.514H1200.66L1196.18 11.77H1195.16Z" fill="url(#paint0_linear)"/>
<defs>
<linearGradient id="paint0_linear" x1="1" y1="-3" x2="1200" y2="-3" gradientUnits="userSpaceOnUse">
<stop stop-color="#F2505D"/>
<stop offset="0.142857" stop-color="#DD3F65"/>
<stop offset="0.285714" stop-color="#C5326A"/>
<stop offset="0.428571" stop-color="#AA2A6D"/>
<stop offset="0.571429" stop-color="#8E256D"/>
<stop offset="0.714286" stop-color="#712269"/>
<stop offset="0.857143" stop-color="#531F63"/>
<stop offset="1" stop-color="#351C59"/>
</linearGradient>
</defs>
</svg>
