<svg width="88" height="80" viewBox="0 0 88 80" fill="none" xmlns="http://www.w3.org/2000/svg"><path d="M24.8288 51.7703c0 3.6693-2.6181 7.8629-5.76 7.8629-3.1418 0-5.76-4.1936-5.76-7.8629 0-3.6694 2.6182-5.7661 5.76-5.7661 3.1419 0 5.76 2.0967 5.76 5.7661zM22.734 62.5164h-1.0472l-2.6182 3.9314-2.6182-3.9314h-1.0473c-3.6654 0-6.54543 2.883-6.54543 6.5524v3.1451H29.2795v-3.1451c0-3.6694-3.1418-6.5524-6.5455-6.5524zM49.9636 51.7703c0 3.6693-2.6182 7.8629-5.76 7.8629s-5.76-4.1936-5.76-7.8629c0-3.6694 2.6182-5.7661 5.76-5.7661s5.76 2.0967 5.76 5.7661zM47.8688 62.5164h-1.0473l-2.6182 3.9314-2.6181-3.9314h-1.0473c-3.6655 0-6.5455 2.883-6.5455 6.5524v3.1451h20.16v-3.1451c.2618-3.6694-2.6182-6.5524-6.2836-6.5524zM75.3594 51.7703c0 3.6693-2.6182 7.8629-5.76 7.8629-3.1419 0-5.76-4.1936-5.76-7.8629 0-3.6694 2.6181-5.7661 5.76-5.7661 3.1418 0 5.76 2.0967 5.76 5.7661zM73.0027 62.5164h-1.0472l-2.6182 3.9314-2.6182-3.9314h-.7855c-3.6654 0-6.5454 2.883-6.5454 6.5524v3.1451h20.16v-3.1451c0-3.6694-2.88-6.5524-6.5455-6.5524zM28.4026 25.2985c-1.5709.7863-3.9273-.2621-3.9273-2.3589s2.3564-3.1452 3.9273-2.0968c.2618 0 0 1.3105 0-8.125-9.4255 0-8.3782.2621-8.3782 0 1.0473-1.5726-.2618-3.93142-2.0945-3.93142-2.0946 0-3.1419 2.35882-2.3564 3.93142 0 .2621 1.3091 0-8.37819 0 0 10.4839.52364 7.8629-1.30909 7.8629-3.40363 0-3.40363 5.242 0 5.242 1.57091 0 1.30909-2.621 1.30909 7.8629h5.23639v6.2903l5.76-6.2903h10.2109c0-9.6976.2618-8.3871 0-8.3871zM85.4026 25.5121c-1.5709.7863-3.9273-.2621-3.9273-2.3589 0-2.0967 2.3564-3.1451 3.9273-2.0967.2618 0 0 1.3104 0-8.125-9.4255 0-8.3782.262-8.3782 0C78.0717 11.3589 76.7626 9 74.9299 9c-2.0946 0-3.1419 2.3589-2.3564 3.9315 0 .262 1.3091 0-8.3782 0 0 10.4838.5237 7.8629-1.3091 7.8629-3.4036 0-3.4036 5.2419 0 5.2419 1.5709 0 1.3091-2.621 1.3091 7.8629h6.5455v6.2903l5.76-6.2903h8.9018c0-9.6976.2618-8.3871 0-8.3871z" stroke="#31353F" stroke-width="2" stroke-miterlimit="10" stroke-linecap="round" stroke-linejoin="round"/><path d="M56.4031 25.2985c-1.5709.7863-3.9273-.2621-3.9273-2.3589s2.3564-3.1452 3.9273-2.0968c.2618 0 0 1.3105 0-8.125-9.4255 0-8.3782.2621-8.3782 0 1.0473-1.5726-.2618-3.93142-2.0946-3.93142-2.0945 0-3.1418 2.35882-2.3563 3.93142 0 .2621 1.3091 0-8.3782 0 0 10.4839.5236 7.8629-1.3091 7.8629-3.4036 0-3.4036 5.242 0 5.242 1.5709 0 1.3091-2.621 1.3091 7.8629h6.5455v6.2903l5.76-6.2903h8.9018c0-9.6976.2618-8.3871 0-8.3871z" fill="#417D51" stroke="#31353F" stroke-width="2" stroke-miterlimit="10" stroke-linecap="round" stroke-linejoin="round"/><path d="M72.7598 23.6243c.6638-.2723 1.1703-.6038 1.5197-.9945.361-.3907.6055-.811.7336-1.2609.1397-.4618.2096-.9235.2096-1.3853 0-.5683-.1106-1.03-.3319-1.3852-.2096-.3552-.5531-.5328-1.0305-.5328-.5241 0-.8909.2249-1.1005.6748-.1979.4381-.2969.9591-.2969 1.5629-.7104 0-1.2984-.1007-1.7642-.3019-.4658-.2131-.6987-.5269-.6987-.9413 0-.5801.2969-1.0656.8908-1.4563.6056-.4025 1.5488-.6038 2.8297-.6038.8268 0 1.5604.1302 2.2009.3907.6405.2605 1.147.6334 1.5196 1.1189.3727.4854.559 1.0715.559 1.7582 0 .9471-.2911 1.7167-.8734 2.3087-.5706.592-1.4381 1.1307-2.6026 1.6161l-.2271 1.6161h-1.31l-.2271-2.1844zM73.6157 30c-.3959 0-.7336-.1006-1.0131-.3019-.2795-.2131-.4192-.5861-.4192-1.1189 0-.5446.1397-.9175.4192-1.1188.2795-.2013.6172-.3019 1.0131-.3019.3843 0 .7162.1006.9957.3019.2911.2013.4366.5742.4366 1.1188 0 .5328-.1455.9058-.4366 1.1189-.2795.2013-.6114.3019-.9957.3019zM15.7598 23.6243c.6638-.2723 1.1703-.6038 1.5197-.9945.361-.3907.6055-.811.7336-1.2609.1397-.4618.2096-.9235.2096-1.3853 0-.5683-.1106-1.03-.3319-1.3852-.2096-.3552-.5531-.5328-1.0305-.5328-.5241 0-.8909.2249-1.1005.6748-.1979.4381-.2969.9591-.2969 1.5629-.7104 0-1.2984-.1007-1.7642-.3019-.4658-.2131-.6987-.5269-.6987-.9413 0-.5801.2969-1.0656.8908-1.4563.6056-.4025 1.5488-.6038 2.8297-.6038.8268 0 1.5604.1302 2.2009.3907.6405.2605 1.147.6334 1.5196 1.1189.3727.4854.559 1.0715.559 1.7582 0 .9471-.2911 1.7167-.8734 2.3087-.5706.592-1.4381 1.1307-2.6026 1.6161l-.2271 1.6161h-1.31l-.2271-2.1844zM16.6157 30c-.3959 0-.7336-.1006-1.0131-.3019-.2795-.2131-.4192-.5861-.4192-1.1189 0-.5446.1397-.9175.4192-1.1188.2795-.2013.6172-.3019 1.0131-.3019.3843 0 .7162.1006.9957.3019.2911.2013.4366.5742.4366 1.1188 0 .5328-.1455.9058-.4366 1.1189-.2795.2013-.6114.3019-.9957.3019z" fill="#31353F"/></svg>