<svg width="82" height="82" viewBox="0 0 82 82" fill="none" xmlns="http://www.w3.org/2000/svg"><path d="M48.1077 65.2907l11.8806-.4083s.4005-10.7505-4.5386-16.0577-4.1382-20.5485-4.1382-20.5485H44.637s-1.6019 13.2.267 19.1877c1.8689 5.9876 2.0023 17.4185 2.0023 17.4185l1.2014.4083z" fill="#417D51"/><path d="M38 27.5v-18h6.5V17H50l1.5-7.5H56c.8333 3.8333 2 12.4 0 16-2 3.6-12.8333 2.8333-18 2z" fill="#417D51"/><path d="M68.665 71.6865h-2.9367v-2.9938c0-2.7216-2.2694-4.899-5.0726-4.899h-.1335c-.1335-10.7505-2.5363-13.336-4.9391-15.9216-2.0024-2.1773-3.8712-4.2186-4.0047-12.5196h2.8033c.5339 0 .9344-.4082.9344-.9526 0-.5443-.4005-.9525-.9344-.9525h-2.9368v-4.6269c4.0047-.136 7.0749-3.5381 7.0749-7.6206V10.5855c0-1.22475-1.0679-2.31341-2.2693-2.31341h-3.8712c-1.2014 0-2.2693 1.08866-2.2693 2.31341v5.5794h-4.5386v-5.5794c0-1.22475-1.068-2.31341-2.2694-2.31341h-3.8712c-1.2014 0-2.2693 1.08866-2.2693 2.31341v5.5794h-4.5386v-5.5794c0-1.22475-1.0679-2.31341-2.2693-2.31341h-3.8712c-1.068 0-2.1359 1.08866-2.1359 2.31341v10.6144c0 4.0825 3.2038 7.3485 7.075 7.6206v4.6269h-2.9368c-.534 0-.9344.4082-.9344.9525 0 .5444.4004.9526.9344.9526h2.9368c-.1335 8.301-2.0024 10.3423-4.0047 12.5196-2.4028 2.4495-4.8056 5.1711-5.0726 15.9216-2.8033 0-5.0726 2.1774-5.0726 4.899v2.9938h-2.9368c-.5339 0-.9344.4083-.9344.9526s.4005.9526.9344.9526H68.665c.534 0 .9345-.4083.9345-.9526s-.4005-.9526-.9345-.9526zM54.2482 49.2329c2.1358 2.1773 4.2716 4.4907 4.4051 14.5608H47.7072c0-10.4783-.6675-13.0639-1.3349-15.5134-.6675-2.1773-1.3349-4.3546-1.3349-12.9278h4.5386c.1335 9.2536 2.4028 11.567 4.6722 13.8804zm-9.2108-15.7855v-4.6269h4.5386v4.6269h-4.5386zm-18.822-12.2475V10.5855c0-.1361.1335-.2722.267-.2722h3.8712c.1334 0 .2669.1361.2669.2722v6.532c0 .5443.4005.9525.9345.9525h6.4075c.5339 0 .9344-.4082.9344-.9525v-6.532c0-.1361.1335-.2722.267-.2722h3.8711c.1335 0 .267.1361.267.2722v6.532c0 .5443.4005.9525.9345.9525h6.4075c.5339 0 .9344-.4082.9344-.9525v-6.532c0-.1361.1335-.2722.267-.2722h3.8711c.1335 0 .267.1361.267.2722v10.6144c0 3.1299-2.4028 5.5794-5.473 5.5794H31.8219c-3.0702 0-5.6065-2.4495-5.6065-5.5794zm16.9531 7.6206v4.6269h-9.7447v-4.6269h9.7447zM28.7517 49.2329c2.1358-2.3134 4.4051-4.7629 4.6721-13.8804h9.7447c0 8.8454.6675 11.1588 1.3349 13.4722.6675 2.3134 1.2014 4.7629 1.3349 14.969H24.48c0-10.0701 2.1358-12.3835 4.2717-14.5608zm35.1077 22.4536h-44.719v-2.9938c0-1.633 1.4684-2.9938 3.2038-2.9938h38.3115c1.7353 0 3.2037 1.3608 3.2037 2.9938v2.9938z" fill="#1A171B" stroke="#1A171B" stroke-width=".5" stroke-miterlimit="10"/></svg>