<svg width="80" height="79" viewBox="0 0 80 79" fill="none" xmlns="http://www.w3.org/2000/svg"><g clip-path="url(#clip0)"><path fill-rule="evenodd" clip-rule="evenodd" d="M45.5 52c7.9264-.668 11.5-4.2372 11.5-12.5C57 30.3873 49.6127 23 40.5 23S24 30.3873 24 39.5s4 12 12.5 12.5c.1833 0 .6682.0032 1.3243.0075 2.3861.0157 7.0363.0464 7.6757-.0075zm-5-4c4.6944 0 8.5-3.8056 8.5-8.5S45.1944 31 40.5 31 32 34.8056 32 39.5s3.8056 8.5 8.5 8.5z" fill="#F7A731"/><path d="M40.3 17.2c.6 0 1-.4 1-1V5.19995c0-.6-.4-1-1-1s-1 .4-1 1V16.1c0 .6.4 1.1 1 1.1zM40.3 61.1c-.6 0-1 .4-1 1V73c0 .6.4 1 1 1s1-.4 1-1V62.1c0-.6-.5-1-1-1zM28.3998 59.5999c-.5-.3-1.1-.1-1.4.4l-5 8.7c-.3.5-.1 1.1.4 1.4.2.1.3.1.5.1.3 0 .7-.2.9-.5l5-8.7c.3-.5.1-1.1-.4-1.4zM52.0998 18.5999c.2.1.3.1.5.1.3 0 .7-.2.9-.5l5-8.69996c.3-.5.1-1.1-.4-1.4-.5-.3-1.1-.1-1.4.4l-5 8.69996c-.2.5-.1 1.2.4 1.4zM66.8 24.8c.2 0 .3 0 .5-.1l7.5-4.3c.5-.3.6-.9.4-1.4-.3-.5-.9-.6-1.4-.4l-7.5 4.3c-.5.3-.6.9-.4 1.4.2.3.6.5.9.5zM13.1999 53.5999l-7.49996 4.3c-.5.3-.6.9-.4 1.4.2.3.5.5.9.5.2 0 .3 0 .5-.1l7.49996-4.3c.5-.4.7-1 .4-1.4-.3-.5-.9-.7-1.4-.4zM53.4998 60c-.3-.5-.9-.6-1.4-.4-.5.3-.6.9-.4 1.4l5 8.7c.2.3.5.5.9.5.2 0 .3 0 .5-.1.5-.3.6-.9.4-1.4l-5-8.7zM27.0999 18.3c.2.3.5.5.9.5.2 0 .3 0 .5-.1.5-.3.6-.9.4-1.4l-5-8.70003c-.3-.5-.9-.6-1.4-.4-.6.2-.8.8-.5 1.3l5.1 8.80003zM74.8 57.8999l-7.5-4.3c-.5-.3-1.1-.1-1.4.4-.3.5-.1 1.1.4 1.4l7.5 4.3c.2.1.3.1.5.1.3 0 .7-.2.9-.5.2-.5.1-1.1-.4-1.4zM5.79999 20.3999l7.50001 4.3c.2.1.3.1.5.1.3 0 .7-.2.9-.5.3-.5.1-1.1-.4-1.4l-7.50001-4.3c-.5-.3-1.1-.1-1.4.4-.3.5-.1 1.1.4 1.4zM40.9999 22.2999h-1.4c-12.4.2-24.1 5.6-32.3 14.9-.1.1-.2.2-.3.4-.7 1.1-.6 2.5.3 3.5 8.2 9.3 19.9 14.7 32.3 14.9h1.4c12.4-.2 24.1-5.6 32.3-14.9.9-1 .9-2.4.3-3.5-.1-.1-.2-.3-.3-.4-8.2-9.3-20-14.7-32.3-14.9zm30.8 17.4c-5.8 6.6-13.4 11.1-21.7 13.1-3.2.8-6.5 1.2-9.8 1.2h-.6c-3.1 0-6.2-.4-9.2-1.1-8.3-2-15.9-6.5-21.7-13.1-.3-.3-.3-.9 0-1.2.2-.3.4-.6.6-.8 5.7-6.1 13-10.4 21-12.3-4.3 3-7 8.1-7 13.7 0 4 1.4 7.8 3.8 10.7 1.3.5 2.7.9 4.1 1.2-3.6-2.7-5.9-7-5.9-11.8 0-8.2 6.7-14.9 14.9-14.9s14.9 6.7 14.9 14.9c0 4.8-2.3 9.1-5.9 11.8 1.4-.3 2.7-.7 4.1-1.2 2.4-2.9 3.8-6.6 3.8-10.7 0-5.6-2.8-10.6-7-13.7 8 1.9 15.3 6.2 21 12.3.2.2.5.5.7.8.2.3.2.8-.1 1.1z" fill="#2E2D2C" stroke="#2E2D2C" stroke-width=".5" stroke-miterlimit="10"/><path d="M39.2 36.6999c0-1 .4-1.8 1-2.4-1 0-2 .3-2.8.9-.1.5-.2 1-.2 1.5 0 3 2.3999 5.4 5.3999 5.4.5 0 1.1-.1 1.5-.2.6-.8.9001-1.8.9001-2.8-.6.6-1.5001 1-2.4001 1-1.8.1-3.3999-1.5-3.3999-3.4z" fill="#2E2D2C" stroke="#2E2D2C" stroke-width=".5" stroke-miterlimit="10"/><path d="M46.4999 32.8999c-.1-.1-.3-.2-.4-.3-1.6-1.4-3.6-2.2-5.9-2.2-4.9 0-8.8 4-8.8 8.8 0 4.9 4 8.8 8.8 8.8 4.9 0 8.8-4 8.8-8.8 0-2.2-.8-4.3-2.2-5.9 0-.2-.2-.3-.3-.4zm-6.2 13.1c-3.8 0-6.8-3.1-6.8-6.8 0-3.5 2.7-6.4 6.1-6.8h.8c1.8 0 3.3.7 4.6 1.8.2.2.4.3.5.5 1.1 1.2 1.8 2.8 1.8 4.6 0 .3 0 .5-.1.8-.5 3.2-3.4 5.9-6.9 5.9z" fill="#2E2D2C" stroke="#2E2D2C" stroke-width=".5" stroke-miterlimit="10"/></g><defs><clipPath id="clip0"><path fill="#fff" transform="translate(5 4)" d="M0 0h70.5v70.3H0z"/></clipPath></defs></svg>