<svg width="35" height="38" viewBox="0 0 35 38" fill="none" xmlns="http://www.w3.org/2000/svg">
<g clip-path="url(#clip0_1717_4314)">
<path d="M33.9256 24.9409C33.9258 25.3368 33.8386 25.7278 33.6702 26.0862C33.4066 26.6352 32.9875 27.0952 32.4646 27.4094C31.8942 27.755 31.2389 27.9364 30.5713 27.9338H29.7074V26.6836V19.7357H30.1703C30.598 19.7357 31.0082 19.5663 31.3106 19.2649C31.6131 18.9634 31.783 18.5546 31.783 18.1283C31.783 18.1237 31.783 18.1192 31.783 18.1146C31.783 18.11 31.783 18.1055 31.783 18.1009V17.6449H32.499C32.8768 17.6415 33.2421 17.7798 33.5223 18.0325C33.6475 18.1466 33.7488 18.2843 33.8204 18.4376C33.89 18.5879 33.9259 18.7516 33.9256 18.9172V24.9424V24.9409ZM4.42942 27.9049C3.54852 27.9121 2.69673 27.5909 2.04124 27.0043C1.74497 26.7345 1.50502 26.4091 1.33516 26.0467C1.16625 25.6849 1.0788 25.2906 1.07895 24.8915V18.8313C1.0781 18.6641 1.11347 18.4987 1.18265 18.3464C1.29285 18.111 1.46996 17.9131 1.69201 17.7772C1.93542 17.6263 2.21671 17.5473 2.50332 17.5492H3.19416V18.1298C3.19416 18.5561 3.36407 18.965 3.66651 19.2664C3.96895 19.5679 4.37915 19.7372 4.80687 19.7372H5.27047V27.9072L4.42942 27.9049ZM4.30895 16.2579C4.34964 16.1619 4.41746 16.0798 4.50415 16.0216C4.59285 15.9618 4.69753 15.93 4.80458 15.9304H5.80576C5.87617 15.9304 5.94589 15.9165 6.0109 15.8895C6.07591 15.8625 6.13492 15.823 6.18453 15.7732C6.23415 15.7234 6.27338 15.6643 6.29998 15.5993C6.32658 15.5343 6.34002 15.4647 6.33951 15.3946V2.55056C6.33927 2.30811 6.39889 2.06933 6.51312 1.85528C6.62735 1.64122 6.79267 1.45848 6.99451 1.32316C7.23959 1.15774 7.52889 1.06956 7.82488 1.07008H27.1477C27.3909 1.06984 27.6305 1.12926 27.8452 1.24311C28.06 1.35697 28.2434 1.52175 28.3791 1.72292C28.5453 1.96738 28.6338 2.25604 28.633 2.55132V15.3953C28.633 15.5368 28.6891 15.6725 28.7891 15.7729C28.8891 15.8732 29.0249 15.9301 29.1668 15.9311H30.1672C30.2392 15.931 30.3105 15.9452 30.3769 15.9729C30.4729 16.0139 30.5552 16.0814 30.614 16.1675C30.6736 16.2561 30.7055 16.3603 30.7055 16.4669V18.129C30.7055 18.2169 30.6838 18.3034 30.6423 18.381C30.6008 18.4585 30.5408 18.5247 30.4676 18.5736C30.3792 18.634 30.2743 18.6658 30.1672 18.6648H29.1668C29.025 18.6662 28.8895 18.7233 28.7896 18.8236C28.6897 18.9238 28.6334 19.0593 28.633 19.2006V28.2902C28.6331 28.3203 28.6359 28.3504 28.6414 28.3799C28.636 28.4093 28.6332 28.439 28.633 28.4689V32.1815H6.34333V28.4415C6.3431 28.4161 6.34131 28.3907 6.33799 28.3655C6.34134 28.3403 6.34312 28.3149 6.34333 28.2895V19.1999C6.34333 19.0584 6.28722 18.9227 6.18723 18.8224C6.08723 18.722 5.95148 18.6651 5.80957 18.6641H4.80534C4.73356 18.6645 4.66245 18.6503 4.59641 18.6223C4.50011 18.5817 4.41772 18.5141 4.35927 18.4277C4.29934 18.3393 4.26745 18.235 4.26777 18.1283V16.492C4.26777 16.4874 4.26777 16.4829 4.26777 16.4783C4.26777 16.4738 4.26777 16.4684 4.26777 16.4639C4.26767 16.3924 4.28193 16.3216 4.30971 16.2556L4.30895 16.2579ZM33.8799 16.9624C33.4652 16.7057 32.9864 16.5706 32.4982 16.5726H31.7822V16.4662C31.7824 16.2513 31.7391 16.0385 31.6549 15.8407C31.5316 15.5496 31.325 15.3012 31.0607 15.1267C30.7965 14.9521 30.4865 14.8592 30.1695 14.8595H29.7066V2.55132C29.7066 1.8748 29.4371 1.22598 28.9572 0.747533C28.4773 0.269089 27.8264 0.000201639 27.1477 1.13274e-07H7.8287C7.49252 -9.97444e-05 7.15961 0.065824 6.84901 0.194005C6.5384 0.322185 6.25617 0.51011 6.01846 0.747042C5.78074 0.983974 5.5922 1.26527 5.46359 1.57485C5.33499 1.88444 5.26885 2.21625 5.26895 2.55132V14.8633H4.80534C4.59359 14.8632 4.3839 14.9047 4.18824 14.9854C3.99258 15.0661 3.81479 15.1844 3.66503 15.3336C3.51527 15.4828 3.39646 15.66 3.31541 15.855C3.23435 16.0499 3.19263 16.2589 3.19263 16.47C3.19263 16.47 3.19263 16.4768 3.19263 16.4806H2.5018C1.85251 16.4774 1.22603 16.719 0.748023 17.157C0.518353 17.3679 0.333257 17.6224 0.203591 17.9056C0.0695927 18.1973 0.000155533 18.5143 1.87337e-08 18.8351V24.8953C-5.50909e-05 25.4498 0.121479 25.9977 0.356093 26.5004C0.707241 27.2427 1.26899 27.866 1.97185 28.2933C2.71133 28.7445 3.56237 28.9814 4.42942 28.9773H5.26818V32.376C5.06134 32.4786 4.87217 32.6133 4.70774 32.775C4.48682 32.9883 4.31622 33.2479 4.2083 33.535L3.29786 36.062C3.22337 36.2628 3.18441 36.4749 3.18272 36.689C3.18191 36.857 3.21002 37.0238 3.26583 37.1823C3.30885 37.3015 3.3695 37.4137 3.44579 37.5151C3.56394 37.6701 3.71805 37.7943 3.89491 37.8769C4.07635 37.9601 4.27395 38.0023 4.47365 38.0008H20.1867C20.3292 38.0008 20.4658 37.9444 20.5666 37.844C20.6673 37.7435 20.7239 37.6074 20.7239 37.4654C20.7239 37.3234 20.6673 37.1872 20.5666 37.0868C20.4658 36.9863 20.3292 36.9299 20.1867 36.9299H4.47365C4.43493 36.9307 4.3964 36.9242 4.36004 36.9109C4.34607 36.9056 4.33316 36.8979 4.32191 36.8881C4.30376 36.8723 4.28987 36.8522 4.2815 36.8296C4.2641 36.7848 4.25581 36.737 4.2571 36.689C4.259 36.5988 4.27654 36.5096 4.30895 36.4253L5.22396 33.9006C5.25679 33.8112 5.30363 33.7276 5.36274 33.6528C5.45691 33.5316 5.57465 33.4305 5.70892 33.3557C5.76807 33.3233 5.83075 33.2978 5.89573 33.2797C5.94775 33.2643 6.00162 33.2562 6.05586 33.2553H28.9235C28.999 33.2569 29.0736 33.2719 29.1439 33.2994C29.2827 33.3537 29.4088 33.4356 29.5145 33.5403C29.6205 33.6421 29.7028 33.7659 29.7554 33.9029L30.6666 36.4276C30.6991 36.5118 30.7166 36.6011 30.7185 36.6913C30.7193 36.7354 30.7126 36.7794 30.6987 36.8213C30.6923 36.839 30.6836 36.8559 30.6727 36.8714C30.66 36.8882 30.6432 36.9015 30.6239 36.9102C30.5855 36.9257 30.5442 36.9332 30.5027 36.9322H27.8598C27.7174 36.9322 27.5807 36.9886 27.48 37.089C27.3793 37.1894 27.3227 37.3256 27.3227 37.4676C27.3227 37.6096 27.3793 37.7458 27.48 37.8462C27.5807 37.9466 27.7174 38.0031 27.8598 38.0031H30.5027C30.68 38.0044 30.8558 37.9714 31.0205 37.9058C31.1418 37.8568 31.2543 37.7885 31.3537 37.7036C31.4994 37.5783 31.6136 37.4205 31.6869 37.2431C31.7586 37.068 31.7946 36.8804 31.7929 36.6913C31.7911 36.4773 31.7524 36.2652 31.6785 36.0643L30.7635 33.5396C30.6926 33.3462 30.5921 33.1649 30.4653 33.0023C30.2812 32.7645 30.0506 32.5664 29.7875 32.4201L29.7044 32.3775V29.0047H30.5683C31.7162 29.0124 32.8258 28.5938 33.6809 27.8305C34.0839 27.4677 34.4103 27.0285 34.6409 26.5384C34.8754 26.0388 34.9972 25.494 34.9977 24.9424V18.9156C34.9976 18.5958 34.9281 18.2798 34.7941 17.9892C34.5963 17.5652 34.2782 17.2083 33.8791 16.9624H33.8799Z" fill="#162D6D"/>
<path d="M19.1131 27.3304C18.9563 27.6243 18.7222 27.8702 18.4359 28.0417C18.1496 28.2132 17.8218 28.3038 17.4878 28.3038C17.1538 28.3038 16.826 28.2132 16.5397 28.0417C16.2534 27.8702 16.0193 27.6243 15.8625 27.3304C15.7478 27.1152 15.6778 26.8792 15.6566 26.6365V26.6365C15.6513 26.5822 15.6488 26.5277 15.649 26.4731C15.6504 26.4101 15.6567 26.3473 15.6681 26.2854C15.7049 26.0865 15.7559 25.8904 15.8206 25.6987C15.9841 25.2269 16.1714 24.7638 16.3818 24.3109C16.7203 23.5661 17.1145 22.7977 17.4226 22.2186C17.4432 22.1799 17.4638 22.1426 17.4844 22.1039C17.6963 22.5013 17.9579 23.0022 18.2171 23.5311C18.5054 24.1194 18.7898 24.7418 18.9979 25.2791C19.1016 25.5497 19.1863 25.7997 19.2427 26.0087C19.2709 26.1128 19.2915 26.2071 19.3045 26.2861C19.3158 26.3468 19.3222 26.4083 19.3235 26.47C19.3235 26.5263 19.3235 26.5803 19.3159 26.6335C19.2945 26.8762 19.2242 27.1122 19.1093 27.3273L19.1131 27.3304ZM20.3674 26.1053C20.32 25.8527 20.2538 25.604 20.1692 25.3612C19.995 24.8522 19.7947 24.3525 19.5691 23.864C19.216 23.0881 18.8134 22.3045 18.5015 21.7125C18.1897 21.1204 17.9602 20.7245 17.9579 20.7184C17.9118 20.635 17.8441 20.5655 17.7619 20.5172C17.6797 20.4688 17.5859 20.4432 17.4905 20.4432C17.395 20.4432 17.3012 20.4688 17.219 20.5172C17.1368 20.5655 17.0691 20.635 17.023 20.7184C17.023 20.7237 16.4222 21.7748 15.8206 22.9984C15.5156 23.6117 15.2166 24.2668 14.9818 24.8657C14.8717 25.1444 14.776 25.4285 14.6951 25.7169C14.6593 25.8491 14.6295 25.9768 14.6082 26.1015C14.587 26.2225 14.5755 26.345 14.5739 26.4678C14.5739 26.5552 14.5784 26.6426 14.5861 26.7285C14.62 27.1138 14.7315 27.4883 14.9139 27.8297C15.2451 28.4503 15.7906 28.9303 16.4495 29.1808C17.1084 29.4314 17.836 29.4355 18.4977 29.1924C18.8096 29.0777 19.0993 28.9104 19.354 28.6976C19.6485 28.4537 19.8917 28.1542 20.0695 27.8162C20.2474 27.4783 20.3564 27.1086 20.3903 26.7285C20.3979 26.6426 20.4017 26.5552 20.4017 26.4678C20.4008 26.3449 20.3893 26.2224 20.3674 26.1015V26.1053Z" fill="#162D6D"/>
<path d="M8.97861 3.97482C8.97812 3.9033 8.9955 3.83279 9.02918 3.76963C9.06286 3.70648 9.11178 3.65267 9.17153 3.61306C9.24323 3.56362 9.32834 3.53711 9.41553 3.53706H25.5602C25.6319 3.53657 25.7027 3.55389 25.766 3.58746C25.8294 3.62103 25.8834 3.66979 25.9231 3.72934C25.9727 3.80081 25.9993 3.88564 25.9994 3.97254V14.7129C25.9995 14.771 25.9881 14.8286 25.9658 14.8823C25.9322 14.9603 25.8769 15.027 25.8065 15.0746C25.7346 15.1237 25.6496 15.1502 25.5625 15.1506H9.41782C9.35939 15.1509 9.30153 15.1393 9.24778 15.1164C9.16945 15.0831 9.10245 15.028 9.05486 14.9576C9.00526 14.8861 8.97866 14.8013 8.97861 14.7144V3.97482ZM8.56991 15.96C8.81987 16.1297 9.11538 16.2203 9.41782 16.2199H25.5602C25.9612 16.2199 26.3458 16.0612 26.6294 15.7785C26.9129 15.4959 27.0722 15.1126 27.0722 14.7129V3.97482C27.0722 3.57512 26.9129 3.19179 26.6294 2.90916C26.3458 2.62652 25.9612 2.46774 25.5602 2.46774H9.41782C9.0168 2.46774 8.6322 2.62652 8.34863 2.90916C8.06507 3.19179 7.90576 3.57512 7.90576 3.97482V14.7129C7.90567 14.959 7.96617 15.2015 8.08197 15.4189C8.19776 15.6363 8.3653 15.8221 8.56991 15.96V15.96Z" fill="#162D6D"/>
<path d="M12.4349 6.30799H22.59C22.7326 6.30799 22.8693 6.25154 22.9701 6.15106C23.071 6.05057 23.1276 5.91429 23.1276 5.77219C23.1276 5.63009 23.071 5.4938 22.9701 5.39332C22.8693 5.29284 22.7326 5.23639 22.59 5.23639H12.4349C12.2923 5.23639 12.1556 5.29284 12.0548 5.39332C11.954 5.4938 11.8973 5.63009 11.8973 5.77219C11.8973 5.91429 11.954 6.05057 12.0548 6.15106C12.1556 6.25154 12.2923 6.30799 12.4349 6.30799V6.30799Z" fill="#162D6D"/>
<path d="M12.4106 9.52961H22.5657C22.7082 9.52961 22.8448 9.4732 22.9456 9.37279C23.0463 9.27238 23.1029 9.13619 23.1029 8.99419C23.1029 8.85219 23.0463 8.716 22.9456 8.61559C22.8448 8.51518 22.7082 8.45877 22.5657 8.45877H12.4106C12.2681 8.45877 12.1315 8.51518 12.0308 8.61559C11.93 8.716 11.8734 8.85219 11.8734 8.99419C11.8734 9.13619 11.93 9.27238 12.0308 9.37279C12.1315 9.4732 12.2681 9.52961 12.4106 9.52961V9.52961Z" fill="#162D6D"/>
<path d="M22.59 11.8408H12.4349C12.2923 11.8408 12.1556 11.8972 12.0548 11.9977C11.954 12.0982 11.8973 12.2345 11.8973 12.3766C11.8973 12.5187 11.954 12.655 12.0548 12.7555C12.1556 12.8559 12.2923 12.9124 12.4349 12.9124H22.59C22.7326 12.9124 22.8693 12.8559 22.9701 12.7555C23.071 12.655 23.1276 12.5187 23.1276 12.3766C23.1276 12.2345 23.071 12.0982 22.9701 11.9977C22.8693 11.8972 22.7326 11.8408 22.59 11.8408V11.8408Z" fill="#162D6D"/>
<path d="M24.6155 37.4103C24.6154 37.3044 24.5838 37.2009 24.5246 37.1129C24.4655 37.0249 24.3815 36.9563 24.2833 36.9159C24.1851 36.8754 24.0771 36.8649 23.9729 36.8856C23.8687 36.9063 23.773 36.9573 23.6979 37.0322C23.6227 37.1071 23.5715 37.2025 23.5508 37.3063C23.53 37.4102 23.5406 37.5179 23.5812 37.6157C23.6218 37.7136 23.6906 37.7973 23.7788 37.8562C23.8671 37.9151 23.971 37.9467 24.0772 37.9468C24.1479 37.9469 24.218 37.9331 24.2833 37.9062C24.3487 37.8793 24.4081 37.8397 24.4581 37.7899C24.5081 37.7401 24.5478 37.6809 24.5748 37.6157C24.6018 37.5506 24.6156 37.4808 24.6155 37.4103V37.4103Z" fill="#162D6D"/>
<path d="M9.32394 17.4283C9.16325 17.4283 9.00615 17.4758 8.87252 17.5647C8.73888 17.6537 8.63469 17.7801 8.57313 17.9281C8.51156 18.076 8.49538 18.2389 8.52662 18.396C8.55786 18.5531 8.63512 18.6974 8.74864 18.8108C8.86217 18.9242 9.00686 19.0015 9.16444 19.0329C9.32201 19.0643 9.4854 19.0485 9.63395 18.9874C9.7825 18.9263 9.90955 18.8227 9.99905 18.6897C10.0886 18.5567 10.1365 18.4002 10.1368 18.24C10.1368 18.1336 10.1158 18.0283 10.0749 17.93C10.0341 17.8317 9.97419 17.7424 9.89871 17.6671C9.82323 17.5919 9.73362 17.5322 9.635 17.4915C9.53639 17.4508 9.43069 17.4298 9.32394 17.4298V17.4283Z" fill="#162D6D"/>
<path d="M12.5897 17.4283C12.429 17.4283 12.2719 17.4758 12.1383 17.5647C12.0046 17.6537 11.9004 17.7801 11.8389 17.9281C11.7773 18.076 11.7611 18.2389 11.7924 18.396C11.8236 18.5531 11.9009 18.6974 12.0144 18.8108C12.1279 18.9242 12.2726 19.0015 12.4302 19.0329C12.5878 19.0643 12.7511 19.0485 12.8997 18.9874C13.0482 18.9263 13.1753 18.8227 13.2648 18.6897C13.3543 18.5567 13.4022 18.4002 13.4025 18.24C13.4023 18.0252 13.3166 17.8192 13.1642 17.6673C13.0118 17.5155 12.8052 17.43 12.5897 17.4298V17.4283Z" fill="#162D6D"/>
<path d="M16.6679 18.24C16.6681 18.0797 16.6205 17.923 16.5312 17.7896C16.442 17.6563 16.315 17.5523 16.1665 17.4909C16.0179 17.4295 15.8544 17.4134 15.6967 17.4446C15.5389 17.4759 15.394 17.5531 15.2803 17.6664C15.1666 17.7797 15.0892 17.9242 15.0578 18.0814C15.0265 18.2386 15.0426 18.4016 15.1043 18.5497C15.1659 18.6977 15.2702 18.8242 15.404 18.9132C15.5377 19.0022 15.695 19.0496 15.8558 19.0494C16.0711 19.0492 16.2776 18.9639 16.4298 18.8121C16.5821 18.6604 16.6677 18.4546 16.6679 18.24V18.24Z" fill="#162D6D"/>
<path d="M19.1206 19.0479C19.2814 19.048 19.4388 19.0006 19.5726 18.9115C19.7064 18.8225 19.8107 18.6959 19.8723 18.5477C19.9339 18.3996 19.9499 18.2366 19.9185 18.0793C19.887 17.922 19.8094 17.7776 19.6955 17.6643C19.5817 17.551 19.4366 17.474 19.2788 17.4429C19.1209 17.4118 18.9574 17.4282 18.8088 17.4898C18.6603 17.5515 18.5335 17.6556 18.4444 17.7892C18.3553 17.9227 18.308 18.0796 18.3085 18.24C18.3087 18.4546 18.3943 18.6604 18.5465 18.8121C18.6988 18.9639 18.9052 19.0492 19.1206 19.0494V19.0479Z" fill="#162D6D"/>
<path d="M22.3866 17.4283C22.2259 17.4282 22.0687 17.4755 21.935 17.5644C21.8012 17.6532 21.6969 17.7796 21.6352 17.9276C21.5736 18.0755 21.5573 18.2383 21.5884 18.3955C21.6196 18.5527 21.6968 18.6971 21.8103 18.8105C21.9238 18.924 22.0684 19.0013 22.226 19.0328C22.3836 19.0643 22.5471 19.0485 22.6957 18.9875C22.8442 18.9264 22.9713 18.8228 23.0609 18.6898C23.1504 18.5567 23.1984 18.4002 23.1987 18.24C23.1987 18.0253 23.1131 17.8193 22.9609 17.6674C22.8086 17.5155 22.602 17.43 22.3866 17.4298V17.4283Z" fill="#162D6D"/>
<path d="M25.6515 17.4283C25.4908 17.4283 25.3337 17.4758 25.2 17.5647C25.0664 17.6537 24.9622 17.7801 24.9006 17.9281C24.8391 18.076 24.8229 18.2389 24.8541 18.396C24.8854 18.5531 24.9626 18.6974 25.0762 18.8108C25.1897 18.9242 25.3344 19.0015 25.4919 19.0329C25.6495 19.0643 25.8129 19.0485 25.9615 18.9874C26.11 18.9263 26.2371 18.8227 26.3266 18.6897C26.4161 18.5567 26.464 18.4002 26.4643 18.24C26.4643 18.0251 26.3787 17.8191 26.2262 17.6671C26.0738 17.5152 25.867 17.4298 25.6515 17.4298V17.4283Z" fill="#162D6D"/>
</g>
<defs>
<clipPath id="clip0_1717_4314">
<rect width="35" height="38" fill="white"/>
</clipPath>
</defs>
</svg>
