<svg width="218" height="97" viewBox="0 0 218 97" fill="none" xmlns="http://www.w3.org/2000/svg">
<g clip-path="url(#clip0)">
<path fill-rule="evenodd" clip-rule="evenodd" d="M123.496 51.0897C123.602 51.1351 123.716 51.1542 123.831 51.1454C124.728 51.1454 125.124 50.1305 126.808 46.4299C128.213 43.2305 131.19 36.2686 135.294 26.8994C138.772 19.0402 140.506 15.649 142.981 9.55344C144.727 5.45674 145.68 4.39235 146.522 3.82921C147.464 3.25024 148.562 2.9758 149.666 3.04329C150.285 3.04329 150.681 2.93189 150.681 2.48014C150.681 2.02839 150.174 1.92319 149.332 1.92319C147.419 1.92319 144.38 2.09028 143.322 2.09028C142.48 2.09028 139.781 1.92319 136.581 1.92319C135.399 1.92319 134.78 2.03458 134.78 2.54203C134.78 3.04947 135.288 3.04947 135.907 3.04947C136.761 3.01968 137.615 3.13262 138.432 3.38364C138.696 3.45686 138.926 3.62145 139.08 3.8481C139.234 4.07476 139.303 4.34876 139.274 4.62132C139.218 5.43243 139.03 6.22895 138.717 6.97908C137.145 11.1872 128.813 31.7882 126.071 38.8058H125.848L114.837 9.78241C113.939 7.48653 113.321 5.68571 113.321 4.83172C113.314 4.56972 113.372 4.31016 113.49 4.07596C113.608 3.84176 113.781 3.64013 113.995 3.48885C114.503 3.09279 115.456 3.0371 116.471 3.0371C117.034 3.0371 117.43 2.92571 117.43 2.47396C117.43 2.02221 116.75 1.917 115.964 1.917C112.763 1.917 109.675 2.08409 108.096 2.08409C107.261 2.08409 106.301 2.08409 105.181 2.02839C104.164 1.76864 103.13 1.58047 102.086 1.46525C99.2082 1.00757 96.2978 0.784055 93.3836 0.796911C84.39 0.796911 78.6584 3.37746 74.338 7.64742C68.6064 13.2603 67.3127 20.8348 67.3127 25.2162C67.3127 31.4417 68.8849 38.6263 74.7837 44.1835C80.2368 49.2332 87.163 51.1454 95.4014 51.1454C97.3345 51.165 99.267 51.0699 101.189 50.8607L106.92 50.9226L106.586 50.7493C106.246 45.9224 106.753 32.8464 105.293 30.2102C104.729 29.2572 102.99 29.7584 102.99 29.7584L102.872 29.7027C102.427 31.0518 102.65 34.5297 102.65 36.9431C102.65 51.4239 83.3254 52.6058 79.3331 30.0988C78.0456 22.5737 78.9431 13.2603 85.9065 7.70312C90.7963 3.77351 95.4014 3.71782 98.9976 5.06069C104.568 7.19567 107.143 10.4508 106.079 15.6737C105.834 17.2714 105.217 18.7892 104.277 20.1046C102.482 22.4067 103.38 24.653 104.785 25.5503C106.19 26.4477 107.985 28.1309 108.096 29.8822C108.214 31.2313 109.056 50.5389 108.944 50.7617C108.944 50.8174 108.883 50.8731 108.833 50.935L123.496 51.0897Z" fill="#08588A"/>
<path d="M9.28461 77.6624C10.4958 77.6991 11.7058 77.5552 12.8746 77.2354C13.215 77.0622 13.3017 76.9817 13.3884 76.6166C13.6011 75.7465 13.7439 74.8608 13.8154 73.968C13.8154 73.8442 13.8154 73.6709 13.6421 73.6709C13.4688 73.6709 13.4688 73.7576 13.3884 74.0979C13.2546 74.5696 13.0202 75.0066 12.7013 75.3789C11.9338 76.3196 10.8444 76.4866 9.06797 76.4866C6.4188 76.4866 2.8226 74.1413 2.8226 69.4443C2.8226 67.5197 3.20636 65.5951 4.6176 64.2708C5.66947 63.3957 7.01483 62.9533 8.38092 63.0332C10.2378 63.0332 11.7605 63.5839 12.4042 64.2708C12.8837 64.7756 13.1707 65.4326 13.215 66.1273C13.215 66.4244 13.2584 66.5543 13.3884 66.5543C13.5183 66.5543 13.5988 66.4244 13.6421 66.1273C13.6855 65.7003 13.6421 64.6298 13.6855 63.949C13.7288 63.2683 13.8154 63.0084 13.8154 62.8784C13.8154 62.7485 13.7288 62.668 13.5183 62.6247C12.8994 62.5814 12.2804 62.4081 11.5067 62.2782C10.565 62.1531 9.61548 62.0972 8.66565 62.1111C5.66985 62.1111 3.78819 62.8784 2.37695 64.2028C1.61902 64.9413 1.01845 65.8256 0.611432 66.8024C0.204408 67.7791 -0.00065257 68.8281 0.00860054 69.8862C0.0178536 70.9443 0.241229 71.9896 0.665273 72.9591C1.08932 73.9286 1.70525 74.8023 2.47598 75.5275C4.27098 77.0622 6.57973 77.6624 9.28461 77.6624V77.6624ZM23.9479 77.6624C28.9987 77.6624 32.2049 74.0732 32.2049 69.5433C32.2049 65.0134 29.1101 62.1173 24.1584 62.1173C18.173 62.1173 15.9076 66.4491 15.9076 69.8899C15.9076 73.3987 18.2163 77.6686 23.9541 77.6686L23.9479 77.6624ZM24.7588 76.6785C20.9583 76.6785 18.6929 73.3925 18.6929 69.2896C18.6929 64.3389 21.2988 63.0517 23.5642 63.0517C26.8199 63.0517 29.3825 65.8303 29.3825 70.2735C29.3825 75.9978 26.1762 76.6785 24.7588 76.6785ZM41.7865 72.3466C41.8732 72.3466 41.9598 72.39 41.9598 72.4766L43.5815 76.5795C43.6023 76.6237 43.6132 76.672 43.6137 76.7209C43.6141 76.7698 43.6039 76.8182 43.584 76.8628C43.564 76.9074 43.5347 76.9472 43.4979 76.9795C43.4612 77.0118 43.4179 77.0357 43.3711 77.0498C43.1978 77.0498 43.1111 77.0869 43.1111 77.2169C43.1111 77.3468 43.3711 77.3468 43.7301 77.3901C45.3146 77.4335 46.7692 77.4335 47.4934 77.4335C48.2176 77.4335 48.3909 77.3901 48.3909 77.2169C48.3909 77.0436 48.3043 77.0498 48.1309 77.0498C47.86 77.0548 47.589 77.0403 47.3201 77.0065C46.893 76.8765 46.2926 76.6166 45.5684 74.8282C44.281 71.7897 41.1181 63.8438 40.6167 62.7299C40.4496 62.3029 40.3196 62.1111 40.1525 62.1111C39.9853 62.1111 39.8058 62.3215 39.5892 62.8784L34.588 75.2552C34.2042 76.2329 33.8204 76.9198 32.8796 77.0498H32.2606C32.0873 77.0498 32.0069 77.0869 32.0069 77.2169C32.0069 77.3468 32.1307 77.4335 32.3906 77.4335C33.4119 77.4335 34.5261 77.3468 34.7427 77.3468C35.3617 77.3468 36.2406 77.4335 36.8348 77.4335C37.0948 77.4335 37.1814 77.3901 37.1814 77.2169C37.1814 77.0436 37.1381 77.0498 36.8781 77.0498H36.581C35.9621 77.0498 35.8073 76.7899 35.8073 76.431C35.8281 76.0167 35.9312 75.6106 36.1106 75.2366L37.1814 72.5013C37.2248 72.3714 37.2619 72.3281 37.3486 72.3281L41.7865 72.3466ZM37.7199 71.3441C37.6395 71.3441 37.6395 71.3008 37.6395 71.2204L39.4964 66.3439C39.5397 66.2635 39.5768 66.1335 39.6202 66.1335C39.6635 66.1335 39.7068 66.2635 39.7068 66.3439L41.4709 71.2142C41.508 71.2946 41.4709 71.3379 41.3842 71.3379L37.7199 71.3441ZM57.6135 77.6686C58.8246 77.7027 60.0342 77.5588 61.2035 77.2416C61.3306 77.1844 61.4429 77.0988 61.532 76.9916C61.621 76.8844 61.6844 76.7582 61.7173 76.6228C61.9117 75.7491 62.0543 74.8647 62.1443 73.9742C62.1443 73.8504 62.101 73.6771 61.971 73.6771C61.8411 73.6771 61.7606 73.7638 61.7173 74.1041C61.5835 74.5758 61.3491 75.0128 61.0302 75.3851C60.2194 76.3257 59.1733 76.4928 57.3969 76.4928C54.7044 76.4928 51.1082 74.1474 51.1082 69.4505C51.1082 67.5259 51.4981 65.6013 52.9651 64.277C53.9986 63.4039 55.328 62.9609 56.6789 63.0393C58.5358 63.0393 60.0522 63.5901 60.7393 64.277C61.1921 64.7948 61.4618 65.4472 61.5068 66.1335C61.5068 66.4306 61.5501 66.5605 61.7234 66.5605C61.8968 66.5605 61.9401 66.4306 61.9401 66.1335C61.9772 65.7065 61.9772 64.6359 62.0205 63.9552C62.0639 63.2745 62.1072 63.0146 62.1072 62.8846C62.1072 62.7547 62.0206 62.6742 61.8101 62.6309C61.1911 62.5876 60.5722 62.4143 59.7985 62.2844C58.853 62.155 57.8992 62.0971 56.945 62.1111C53.9926 62.1111 52.0676 62.8784 50.6563 64.2028C49.9151 64.8994 49.324 65.7402 48.9196 66.6734C48.5151 67.6067 48.3057 68.6128 48.3043 69.6299C48.2639 70.7337 48.4644 71.8331 48.892 72.8516C49.3195 73.87 49.9639 74.7831 50.7801 75.5275C52.5751 77.0622 54.8839 77.6624 57.6259 77.6624L57.6135 77.6686ZM68.9901 68.6955C68.9468 68.6955 68.9035 68.6522 68.9035 68.5656V68.1386C68.9035 65.1063 68.9035 64.5493 68.9468 63.9119C68.9901 63.2745 69.1139 62.8846 69.671 62.798C69.8547 62.7574 70.0407 62.7285 70.228 62.7114C70.4818 62.7114 70.6118 62.7114 70.6118 62.5443C70.6118 62.3772 70.4447 62.371 70.1847 62.371C69.411 62.371 68.1297 62.4143 67.6593 62.4143C67.1889 62.4143 65.8643 62.371 64.7997 62.371C64.5397 62.371 64.3726 62.4143 64.3726 62.5443C64.3726 62.6742 64.4964 62.7114 64.7131 62.7114C64.9713 62.7118 65.2287 62.7409 65.4806 62.798C66.1614 62.928 66.3347 63.2683 66.3781 63.9119V71.6412C66.3781 73.4977 66.3781 75.02 66.2914 75.874C66.2048 76.4928 66.1243 76.9013 65.7405 76.9879C65.4991 77.0263 65.2545 77.0409 65.0102 77.0312C64.7502 77.0312 64.6697 77.1117 64.6697 77.1983C64.6697 77.2849 64.8368 77.4149 65.0968 77.4149C65.8643 77.4149 67.1456 77.3283 67.5727 77.3283C68.1297 77.3283 69.4296 77.4149 70.6675 77.4149C70.9213 77.4149 71.0513 77.3283 71.0513 77.1983C71.0513 77.0684 70.9646 77.0312 70.7542 77.0312C70.4111 77.0386 70.0679 77.0241 69.7267 76.9879C69.1077 76.9013 68.9963 76.4743 68.9592 75.9173C68.8725 75.02 68.8725 73.4791 68.8725 71.6412V69.8899C68.8725 69.8032 68.9158 69.7661 68.9592 69.7661H76.5725C76.5892 69.7641 76.6062 69.7659 76.6221 69.7714C76.638 69.777 76.6525 69.786 76.6644 69.7979C76.6763 69.8098 76.6854 69.8243 76.6909 69.8402C76.6964 69.8562 76.6982 69.8731 76.6962 69.8899V71.6412C76.6962 73.4977 76.6962 75.02 76.6096 75.874C76.5291 76.4928 76.3991 76.9013 75.9906 76.9879C75.7494 77.0282 75.5045 77.0427 75.2602 77.0312C75.0498 77.0312 74.9631 77.1117 74.9631 77.1983C74.9631 77.2849 75.0869 77.4149 75.3902 77.4149C76.1577 77.4149 77.4019 77.3283 77.8661 77.3283C78.3303 77.3283 79.6611 77.4149 80.9609 77.4149C81.2209 77.4149 81.388 77.3283 81.388 77.1983C81.388 77.0684 81.258 77.0312 81.0476 77.0312C80.7189 77.0394 80.3901 77.0249 80.0634 76.9879C79.4445 76.9013 79.333 76.4743 79.2526 75.9173C79.1659 75.02 79.1659 73.4791 79.1659 71.6412V68.1386C79.1659 65.1063 79.1659 64.5493 79.2093 63.9119C79.2526 63.2745 79.4197 62.8846 79.9334 62.798C80.1377 62.7561 80.3445 62.7272 80.5524 62.7114C80.769 62.7114 80.899 62.7114 80.899 62.5443C80.899 62.3772 80.769 62.371 80.4658 62.371C79.6982 62.371 78.4603 62.4143 77.9899 62.4143C77.5195 62.4143 76.1887 62.371 75.1179 62.371C74.8208 62.371 74.6908 62.4143 74.6908 62.5443C74.6908 62.6742 74.8208 62.7114 75.0374 62.7114C75.2954 62.7169 75.5523 62.7459 75.8049 62.798C76.4239 62.928 76.6158 63.2683 76.6591 63.9119C76.7024 64.5555 76.7024 65.1063 76.7024 68.1386V68.5656C76.7055 68.5828 76.7045 68.6004 76.6994 68.6172C76.6944 68.6339 76.6855 68.6492 76.6734 68.6618C76.6614 68.6745 76.6465 68.6841 76.63 68.69C76.6136 68.6958 76.596 68.6977 76.5786 68.6955H68.9901ZM85.7517 71.6412C85.7891 73.0533 85.7477 74.4664 85.6279 75.874C85.5846 76.4928 85.4546 76.9013 85.0709 76.9879C84.8296 77.0282 84.5848 77.0427 84.3405 77.0312C84.1238 77.0312 84.0434 77.1117 84.0434 77.1983C84.0434 77.2849 84.1672 77.4149 84.4271 77.4149C84.8109 77.4149 85.3246 77.3716 85.7951 77.3716C86.2655 77.3716 86.7359 77.3283 86.9525 77.3283C87.5715 77.3283 88.1471 77.3716 89.0013 77.4149C89.8555 77.4582 90.9696 77.4582 92.4675 77.4582C93.1979 77.4582 93.365 77.4582 93.5383 76.9446C93.6681 76.2245 93.7528 75.4969 93.7921 74.7663C93.7921 74.5497 93.7921 74.3826 93.625 74.3826C93.4579 74.3826 93.4517 74.4631 93.4083 74.6796C93.4036 74.9853 93.3181 75.2843 93.1605 75.5462C93.0029 75.8081 92.7787 76.0237 92.5108 76.171C91.9085 76.3473 91.2807 76.4205 90.6539 76.3876C88.6423 76.3876 88.3019 76.0906 88.2585 74.723V70.0631C88.2585 69.9332 88.3019 69.8899 88.3885 69.8899C88.8589 69.8899 90.8273 69.8899 91.211 69.9332C91.9352 70.0198 92.2385 70.3169 92.319 70.7067C92.3879 70.9416 92.4172 71.1863 92.4056 71.4308C92.4037 71.454 92.4069 71.4773 92.415 71.4992C92.423 71.5211 92.4357 71.5409 92.4522 71.5574C92.4687 71.5739 92.4886 71.5866 92.5105 71.5947C92.5323 71.6027 92.5557 71.6059 92.5789 71.604C92.7894 71.604 92.7894 71.3874 92.7894 71.2204C92.7894 71.0533 92.8327 70.2797 92.8327 69.8899C92.9194 68.8688 93.006 68.5656 93.006 68.4356C93.006 68.3056 92.9627 68.2685 92.876 68.2685C92.7894 68.2685 92.7027 68.3985 92.5356 68.5284C92.3685 68.6584 92.0652 68.7821 91.5948 68.8255C91.1244 68.8688 88.8589 68.8688 88.4318 68.8688C88.3019 68.8688 88.2585 68.7821 88.2585 68.6522V63.6087C88.2585 63.4849 88.3019 63.4416 88.4318 63.4416C88.8156 63.4416 90.9077 63.4849 91.2543 63.5282C92.2385 63.6087 92.4489 63.8686 92.5789 64.2089C92.652 64.4438 92.6936 64.6872 92.7027 64.933C92.7027 65.1063 92.7522 65.2362 92.876 65.2362C92.9998 65.2362 93.0493 65.1063 93.0927 64.9763C93.0956 64.5479 93.1246 64.1202 93.1793 63.6953C93.1962 63.2641 93.2521 62.8354 93.3464 62.4143C93.3464 62.2844 93.3031 62.2039 93.2227 62.2039C93.1422 62.2039 93.006 62.2844 92.876 62.2844C92.5948 62.348 92.3093 62.3914 92.0219 62.4143H85.8322C85.3184 62.4143 84.7614 62.371 84.2043 62.371C83.9072 62.371 83.7772 62.4143 83.7772 62.5443C83.7772 62.6742 83.9072 62.7114 84.1238 62.7114C84.3818 62.7169 84.6387 62.7459 84.8914 62.798C85.5103 62.928 85.7084 63.2683 85.7455 63.9119C85.7827 64.5555 85.7889 65.1063 85.7889 68.1386L85.7517 71.6412ZM100.805 68.1386C100.805 65.1063 100.805 64.5493 100.855 63.9119C100.904 63.2745 101.065 62.8846 101.579 62.798C101.832 62.7532 102.089 62.7242 102.346 62.7114C102.606 62.7114 102.736 62.7114 102.736 62.5443C102.736 62.3772 102.563 62.371 102.303 62.371C101.535 62.371 100.081 62.4143 99.6104 62.4143C99.14 62.4143 97.8154 62.371 96.8745 62.371C96.5774 62.371 96.4475 62.4143 96.4475 62.5443C96.4475 62.6742 96.5279 62.7114 96.7879 62.7114C96.9968 62.7173 97.2044 62.7464 97.4069 62.798C98.0258 62.928 98.2239 63.2683 98.2672 63.9119C98.3106 64.5555 98.3106 65.1063 98.3106 68.1386V71.6412C98.3106 73.4977 98.3106 75.02 98.2239 75.874C98.1372 76.4928 98.0073 76.9013 97.6049 76.9879C97.3658 77.028 97.123 77.0425 96.8807 77.0312C96.6641 77.0312 96.5774 77.1117 96.5774 77.1983C96.5774 77.2849 96.7074 77.4149 96.9612 77.4149C97.3512 77.4149 97.9082 77.3716 98.3291 77.3716C98.75 77.3716 99.2761 77.3283 99.4866 77.3283C100.304 77.3283 101.028 77.3716 101.925 77.4149C102.823 77.4582 103.85 77.4582 105.262 77.4582C106.289 77.4582 106.419 77.3716 106.499 76.9446C106.661 76.1844 106.763 75.4126 106.803 74.6363C106.803 74.4197 106.803 74.296 106.673 74.296C106.543 74.296 106.462 74.4197 106.462 74.593C106.388 75.0273 106.21 75.4372 105.942 75.7874C105.429 76.3443 104.667 76.3443 103.597 76.3443C102.055 76.3443 101.542 76.2144 101.201 75.9173C100.861 75.6203 100.768 74.166 100.768 71.6412L100.805 68.1386ZM112.869 68.1386V63.9181C112.912 63.2312 113.085 62.8908 113.636 62.8042C113.892 62.757 114.15 62.7281 114.41 62.7176C114.627 62.7176 114.75 62.7176 114.75 62.5505C114.75 62.3834 114.627 62.3772 114.323 62.3772C113.556 62.3772 112.101 62.4205 111.631 62.4205C111.16 62.4205 109.83 62.3772 108.889 62.3772C108.592 62.3772 108.462 62.4205 108.462 62.5505C108.462 62.6804 108.592 62.7176 108.808 62.7176C109.017 62.7209 109.225 62.75 109.427 62.8042C110.114 62.9341 110.244 63.2745 110.288 63.9181C110.331 64.5617 110.325 65.1124 110.325 68.1447V71.6474C110.325 73.5039 110.325 75.0262 110.244 75.8802C110.158 76.499 110.071 76.9075 109.687 76.9941C109.446 77.0328 109.201 77.0473 108.957 77.0374C108.703 77.0374 108.616 77.1179 108.616 77.2045C108.616 77.2911 108.79 77.4211 109.043 77.4211C109.427 77.4211 109.941 77.3778 110.411 77.3778C110.882 77.3778 111.309 77.3345 111.525 77.3345C112.336 77.3345 113.067 77.3778 113.964 77.4211C114.862 77.4644 115.889 77.4644 117.338 77.4644C118.371 77.4644 118.458 77.3778 118.576 76.9508C118.733 76.19 118.832 75.4184 118.873 74.6425C118.873 74.4259 118.873 74.3022 118.705 74.3022C118.538 74.3022 118.532 74.4259 118.489 74.5992C118.439 75.0392 118.26 75.4548 117.975 75.7936C117.461 76.3505 116.694 76.3505 115.666 76.3505C114.088 76.3505 113.574 76.2205 113.228 75.9235C112.881 75.6265 112.844 74.1722 112.844 71.6474L112.869 68.1386ZM128.052 72.3281C128.139 72.3281 128.182 72.3714 128.219 72.458L129.804 76.5609C129.834 76.6007 129.854 76.6474 129.861 76.6968C129.868 76.7462 129.863 76.7967 129.846 76.8436C129.829 76.8905 129.8 76.9323 129.762 76.9651C129.724 76.9979 129.679 77.0206 129.63 77.0312C129.463 77.0312 129.376 77.0684 129.376 77.1983C129.376 77.3283 129.593 77.3283 129.995 77.3716C131.58 77.4149 133.035 77.4149 133.759 77.4149C134.483 77.4149 134.656 77.3716 134.656 77.1983C134.656 77.025 134.57 77.0312 134.402 77.0312C134.117 77.0375 133.832 77.023 133.548 76.9879C133.158 76.858 132.558 76.598 131.834 74.8096C130.553 71.7711 127.346 63.8253 126.882 62.7114C126.665 62.2844 126.579 62.0925 126.368 62.0925C126.158 62.0925 126.065 62.3029 125.811 62.8599L120.859 75.2366C120.426 76.2144 120.086 76.9013 119.145 77.0312H118.526C118.353 77.0312 118.272 77.0684 118.272 77.1983C118.272 77.3283 118.402 77.4149 118.656 77.4149C119.683 77.4149 120.791 77.3283 121.008 77.3283C121.627 77.3283 122.463 77.4149 123.106 77.4149C123.317 77.4149 123.447 77.3716 123.447 77.1983C123.447 77.025 123.403 77.0312 123.143 77.0312H122.846C122.227 77.0312 122.079 76.7713 122.079 76.4124C122.099 76.0026 122.187 75.5991 122.339 75.218L123.447 72.4828C123.49 72.3528 123.49 72.3095 123.614 72.3095L128.052 72.3281ZM123.991 71.3441C123.905 71.3441 123.905 71.3008 123.905 71.2204L125.762 66.3439C125.805 66.2635 125.805 66.1335 125.886 66.1335C125.966 66.1335 125.978 66.2635 125.978 66.3439L127.773 71.2204C127.81 71.3008 127.773 71.3441 127.687 71.3441H123.991ZM145.891 76.4743C146.274 77.4149 146.398 77.6686 146.658 77.6686C146.918 77.6686 147.042 77.3716 147.556 76.2144C147.983 75.2366 148.923 73.0521 150.205 70.1498C151.276 67.7116 151.833 66.6472 152.6 64.7659C153.114 63.4849 153.417 63.1445 153.671 62.9713C153.965 62.7874 154.308 62.6968 154.655 62.7114C154.872 62.7114 154.996 62.7114 154.996 62.5443C154.996 62.3772 154.828 62.371 154.568 62.371C153.949 62.371 153.027 62.4143 152.712 62.4143C152.396 62.4143 151.647 62.371 150.619 62.371C150.229 62.371 150.056 62.4143 150.056 62.5876C150.056 62.7609 150.229 62.7114 150.403 62.7114C150.678 62.7152 150.951 62.759 151.214 62.8413C151.293 62.8673 151.362 62.9191 151.409 62.9886C151.456 63.0581 151.479 63.1412 151.474 63.225C151.448 63.4749 151.389 63.7203 151.3 63.9552C150.793 65.2795 148.205 71.6412 147.364 73.8566H147.283L143.86 64.7968C143.636 64.3063 143.478 63.7881 143.39 63.2559C143.391 63.1796 143.41 63.1047 143.447 63.0377C143.484 62.9708 143.536 62.914 143.6 62.8723C143.836 62.7421 144.105 62.682 144.374 62.699C144.541 62.699 144.671 62.699 144.671 62.5319C144.671 62.3648 144.455 62.3586 144.201 62.3586C143.217 62.3586 142.276 62.4019 141.762 62.4019C141.081 62.4019 139.905 62.3586 138.896 62.3586C138.599 62.3586 138.382 62.4019 138.382 62.5319C138.382 62.6619 138.426 62.699 138.599 62.699C138.858 62.6915 139.116 62.7207 139.367 62.7856C140.097 63.0022 140.437 63.2126 140.908 64.3265L145.891 76.4743ZM161.241 72.3281C161.286 72.3211 161.333 72.3303 161.373 72.354C161.412 72.3778 161.442 72.4145 161.458 72.458L163.042 76.5609C163.08 76.6464 163.084 76.7435 163.051 76.8313C163.019 76.9192 162.953 76.9909 162.869 77.0312C162.652 77.0312 162.565 77.0684 162.565 77.1983C162.565 77.3283 162.825 77.3283 163.184 77.3716C164.812 77.4149 166.279 77.4149 166.948 77.4149C167.616 77.4149 167.889 77.3716 167.889 77.1983C167.889 77.025 167.759 77.0312 167.635 77.0312C167.347 77.0374 167.06 77.0229 166.774 76.9879C166.347 76.858 165.79 76.598 165.023 74.8096C163.742 71.7711 160.572 63.8253 160.102 62.7114C159.892 62.2844 159.762 62.0925 159.594 62.0925C159.427 62.0925 159.291 62.3029 159.037 62.8599L154.03 75.2366C153.646 76.2144 153.262 76.9013 152.365 77.0312H151.746C151.616 77.0312 151.535 77.0684 151.535 77.1983C151.535 77.3283 151.665 77.4149 151.919 77.4149C152.947 77.4149 154.011 77.3283 154.271 77.3283C154.89 77.3283 155.726 77.4149 156.363 77.4149C156.58 77.4149 156.71 77.3716 156.71 77.1983C156.71 77.025 156.623 77.0312 156.407 77.0312H156.11C155.491 77.0312 155.299 76.7713 155.299 76.4124C155.32 75.9989 155.421 75.5933 155.596 75.218L156.667 72.4828C156.71 72.3528 156.747 72.3095 156.834 72.3095L161.241 72.3281ZM157.218 71.3441C157.125 71.3441 157.088 71.3008 157.125 71.2204L158.982 66.3439C158.982 66.2635 159.025 66.1335 159.112 66.1335C159.198 66.1335 159.149 66.2635 159.198 66.3439L160.987 71.2204C160.987 71.3008 160.987 71.3441 160.863 71.3441H157.218ZM172.438 68.1386C172.438 65.1063 172.438 64.5493 172.488 63.9119C172.537 63.2745 172.655 62.8846 173.212 62.798C173.465 62.7512 173.722 62.7222 173.979 62.7114C174.239 62.7114 174.32 62.7114 174.32 62.5443C174.32 62.3772 174.19 62.371 173.936 62.371C173.168 62.371 171.714 62.4143 171.2 62.4143C170.686 62.4143 169.405 62.371 168.508 62.371C168.204 62.371 168.037 62.4143 168.037 62.5443C168.037 62.6742 168.161 62.7114 168.378 62.7114C168.609 62.7163 168.839 62.7454 169.065 62.798C169.684 62.928 169.875 63.2683 169.919 63.9119C169.962 64.5555 169.962 65.1063 169.962 68.1386V71.6412C170.001 73.0534 169.958 74.4668 169.832 75.874C169.745 76.4928 169.659 76.9013 169.275 76.9879C169.036 77.028 168.793 77.0425 168.551 77.0312C168.291 77.0312 168.248 77.1117 168.248 77.1983C168.248 77.2849 168.378 77.4149 168.638 77.4149C169.021 77.4149 169.529 77.3716 169.999 77.3716C170.47 77.3716 170.903 77.3283 171.157 77.3283C171.974 77.3283 172.655 77.3716 173.552 77.4149C174.45 77.4582 175.477 77.4582 176.932 77.4582C177.959 77.4582 178.04 77.3716 178.17 76.9446C178.327 76.1838 178.426 75.4122 178.467 74.6363C178.467 74.4197 178.467 74.296 178.293 74.296C178.12 74.296 178.12 74.4197 178.083 74.593C178.025 75.0308 177.847 75.4441 177.569 75.7874C177.093 76.3443 176.282 76.3443 175.26 76.3443C173.719 76.3443 173.162 76.2144 172.859 75.9173C172.432 75.577 172.432 74.166 172.432 71.6412L172.438 68.1386ZM184.458 68.1386C184.458 65.1063 184.458 64.5493 184.502 63.9119C184.545 63.2745 184.718 62.8846 185.226 62.798C185.496 62.7511 185.769 62.7221 186.043 62.7114C186.253 62.7114 186.383 62.7114 186.383 62.5443C186.383 62.3772 186.253 62.371 185.956 62.371C185.189 62.371 183.728 62.4143 183.264 62.4143C182.799 62.4143 181.463 62.371 180.528 62.371C180.225 62.371 180.101 62.4143 180.101 62.5443C180.101 62.6742 180.225 62.7114 180.441 62.7114C180.65 62.7173 180.858 62.7464 181.06 62.798C181.747 62.928 181.871 63.2683 181.921 63.9119C181.97 64.5555 181.958 65.1063 181.958 68.1386V71.6412C181.958 73.4977 181.958 75.02 181.871 75.874C181.791 76.4928 181.704 76.9013 181.252 76.9879C181.025 77.0285 180.795 77.043 180.565 77.0312C180.311 77.0312 180.225 77.1117 180.225 77.1983C180.225 77.2849 180.355 77.4149 180.608 77.4149C181.035 77.4149 181.549 77.3716 182.02 77.3716C182.49 77.3716 182.917 77.3283 183.134 77.3283C183.945 77.3283 184.675 77.3716 185.572 77.4149C186.47 77.4582 187.497 77.4582 188.909 77.4582C189.973 77.4582 190.06 77.3716 190.19 76.9446C190.329 76.1808 190.428 75.4104 190.487 74.6363C190.487 74.4197 190.444 74.296 190.32 74.296C190.196 74.296 190.103 74.4197 190.103 74.593C190.031 75.0268 189.855 75.4367 189.59 75.7874C189.076 76.3443 188.308 76.3443 187.237 76.3443C185.696 76.3443 185.183 76.2144 184.842 75.9173C184.502 75.6203 184.415 74.166 184.415 71.6412L184.458 68.1386ZM194.04 71.6412C194.079 73.0534 194.036 74.4668 193.91 75.874C193.829 76.4928 193.743 76.9013 193.359 76.9879C193.118 77.0279 192.873 77.0424 192.629 77.0312C192.369 77.0312 192.325 77.1117 192.325 77.1983C192.325 77.2849 192.455 77.4149 192.715 77.4149C193.099 77.4149 193.613 77.3716 194.083 77.3716C194.554 77.3716 194.981 77.3283 195.241 77.3283C195.86 77.3283 196.435 77.3716 197.289 77.4149C198.144 77.4582 199.258 77.4582 200.712 77.4582C201.48 77.4582 201.653 77.4582 201.82 76.9446C201.952 76.2246 202.039 75.4971 202.08 74.7663C202.08 74.5497 202.08 74.3826 201.907 74.3826C201.734 74.3826 201.74 74.4631 201.697 74.6796C201.692 74.9861 201.606 75.2857 201.447 75.5478C201.288 75.8099 201.062 76.025 200.793 76.171C200.19 76.3473 199.563 76.4205 198.936 76.3876C196.924 76.3876 196.584 76.0906 196.541 74.723V70.0631C196.541 69.9332 196.584 69.8899 196.671 69.8899C197.135 69.8899 199.109 69.8899 199.487 69.9332C200.217 70.0198 200.52 70.3169 200.601 70.7067C200.67 70.9416 200.699 71.1863 200.688 71.4308C200.686 71.454 200.689 71.4773 200.697 71.4992C200.705 71.5211 200.718 71.5409 200.734 71.5574C200.751 71.5739 200.771 71.5866 200.792 71.5947C200.814 71.6027 200.838 71.6059 200.861 71.604C201.028 71.604 201.028 71.3874 201.028 71.2204C201.028 71.0533 201.115 70.2797 201.115 69.8899C201.201 68.8688 201.282 68.5656 201.282 68.4356C201.282 68.3056 201.245 68.2685 201.158 68.2685C201.071 68.2685 200.985 68.3985 200.811 68.5284C200.638 68.6584 200.347 68.7821 199.871 68.8255C199.394 68.8688 197.135 68.8688 196.708 68.8688C196.584 68.8688 196.541 68.7821 196.541 68.6522V63.6087C196.541 63.4849 196.584 63.4416 196.708 63.4416C197.098 63.4416 199.184 63.4849 199.53 63.5282C200.52 63.6087 200.731 63.8686 200.861 64.2089C200.931 64.4445 200.972 64.6876 200.985 64.933C200.985 65.1063 201.028 65.2362 201.158 65.2362C201.288 65.2362 201.331 65.1063 201.331 64.9763C201.331 64.8463 201.412 63.8686 201.455 63.6953C201.474 63.2662 201.518 62.8385 201.585 62.4143C201.585 62.2844 201.585 62.2039 201.498 62.2039C201.412 62.2039 201.282 62.2844 201.158 62.2844C200.877 62.3475 200.591 62.3909 200.304 62.4143H194.114C193.6 62.4143 193 62.371 192.486 62.371C192.189 62.371 192.059 62.4143 192.059 62.5443C192.059 62.6742 192.146 62.7114 192.4 62.7114C192.66 62.717 192.919 62.746 193.173 62.798C193.792 62.928 193.984 63.2683 194.028 63.9119C194.071 64.5555 194.071 65.1063 194.071 68.1386L194.04 71.6412ZM209.05 73.9061C209.05 74.2093 209.05 75.02 209.013 75.874C208.969 76.4928 208.796 76.9013 208.394 76.9879C208.152 77.0263 207.908 77.0409 207.663 77.0312C207.453 77.0312 207.366 77.1117 207.366 77.1983C207.366 77.2849 207.533 77.4149 207.793 77.4149C208.524 77.4149 209.805 77.3283 210.269 77.3283C210.733 77.3283 212.064 77.4149 213.302 77.4149C213.605 77.4149 213.729 77.3283 213.729 77.1983C213.729 77.0684 213.643 77.0312 213.432 77.0312C213.103 77.0394 212.775 77.0249 212.448 76.9879C211.829 76.9013 211.637 76.4743 211.594 75.874C211.55 75.02 211.55 74.2093 211.55 73.9061V72.2414C211.509 71.5739 211.611 70.9052 211.848 70.2797C212.988 68.0969 214.259 65.9849 215.654 63.9552C215.919 63.5392 216.288 63.1999 216.725 62.9713C217.001 62.8175 217.307 62.7286 217.623 62.7114C217.839 62.7114 217.969 62.6742 217.969 62.5443C217.969 62.4143 217.839 62.371 217.623 62.371C217.239 62.371 215.914 62.4143 215.487 62.4143C214.93 62.4143 214.286 62.371 213.63 62.371C213.414 62.371 213.327 62.4143 213.327 62.5443C213.327 62.6742 213.5 62.7114 213.667 62.7609C213.791 62.7734 213.905 62.8332 213.986 62.9277C214.066 63.0222 214.108 63.1442 214.101 63.2683C214.08 63.6295 213.976 63.981 213.797 64.2956C213.544 64.9144 211.018 69.2958 210.802 69.7661C210.504 69.2091 207.707 64.4255 207.428 63.8253C207.321 63.6111 207.248 63.3814 207.212 63.1445C207.204 63.0604 207.225 62.9762 207.273 62.9062C207.32 62.8362 207.39 62.7849 207.471 62.7609C207.769 62.7114 207.899 62.6742 207.899 62.5443C207.899 62.4143 207.812 62.371 207.601 62.371C206.741 62.371 205.887 62.4143 205.503 62.4143C204.816 62.4143 203.318 62.371 202.978 62.371C202.637 62.371 202.594 62.4143 202.594 62.5443C202.594 62.6742 202.724 62.7114 202.891 62.7114C203.193 62.7375 203.486 62.826 203.751 62.9713C204.29 63.3695 204.751 63.8622 205.113 64.4255C205.8 65.4899 208.456 69.8527 208.629 70.1498C208.937 70.8024 209.082 71.5204 209.05 72.2414V73.9061Z" fill="#08588A"/>
<path d="M35.6339 85.9054H35.6896C35.9991 86.2705 38.1655 88.6159 40.2762 90.7013L45.9583 96.3822C46.1625 96.5865 46.373 96.7969 46.5772 96.7969C46.7815 96.7969 46.8372 96.5865 46.8372 96.178L47.0415 84.0303C47.0972 82.9349 47.2519 82.5203 47.7718 82.3594C47.9608 82.3184 48.1543 82.3018 48.3475 82.3099C48.5579 82.3099 48.7127 82.2542 48.7127 82.1552C48.7127 82.0562 48.5022 81.9448 48.2423 81.9448C47.3014 81.9448 46.571 82.05 46.3854 82.05C45.9707 82.05 45.0298 81.9448 44.0395 81.9448C43.7795 81.9448 43.5691 82.0005 43.5691 82.1552C43.5691 82.3099 43.6248 82.3099 43.8352 82.3099C44.1852 82.2901 44.5361 82.3256 44.8751 82.4151C45.3455 82.6193 45.494 82.9844 45.5559 84.185L45.7107 92.8487H45.6055C45.296 92.5331 42.6901 89.7545 41.3841 88.4178C38.5616 85.6578 35.6463 82.5822 35.3801 82.3223C35.0706 81.9572 34.9159 81.7035 34.7055 81.7035C34.495 81.7035 34.4455 81.9634 34.4455 82.378L34.2846 93.7398C34.235 95.4107 34.1855 95.98 33.6656 96.1409C33.3739 96.199 33.0778 96.2321 32.7805 96.2399C32.6257 96.2399 32.5205 96.2399 32.5205 96.4008C32.5205 96.5617 32.6752 96.5555 32.9352 96.5555C33.9318 96.5555 34.7921 96.4998 35.0211 96.4998C35.3863 96.4998 36.1724 96.5555 37.4227 96.5555C37.6827 96.5555 37.8436 96.5555 37.8436 96.4008C37.8436 96.2461 37.7384 96.2399 37.5279 96.2399C37.1863 96.2455 36.8458 96.1975 36.519 96.0976C36.1043 95.9429 35.8382 95.4787 35.8382 93.9626L35.6339 85.9054ZM53.0021 90.9612C53.0021 92.7311 53.0021 94.2411 52.8969 95.0765C52.8412 95.652 52.736 96.0666 52.377 96.1223C52.1388 96.1868 51.8933 96.2201 51.6466 96.2213C51.4361 96.2213 51.3309 96.277 51.3309 96.3822C51.3309 96.4875 51.4918 96.537 51.7518 96.537H53.0516C53.4154 96.4966 53.7812 96.478 54.1472 96.4813C54.7662 96.4813 55.348 96.537 56.1836 96.537C57.0192 96.537 58.0405 96.5865 59.5198 96.5865C60.2502 96.5865 60.4049 96.5865 60.5659 96.1223C60.7022 95.4157 60.7871 94.7001 60.8197 93.9812C60.8197 93.7769 60.8197 93.6161 60.6711 93.6161C60.5226 93.6161 60.4607 93.7212 60.4607 93.9317C60.2997 94.7114 60.0955 95.1322 59.5693 95.3364C58.9792 95.5098 58.3637 95.581 57.7496 95.5468C55.8184 95.5468 55.5027 95.2869 55.4532 93.9317C55.3975 93.4118 55.4532 91.6358 55.4532 90.9612V89.4513C55.4532 89.3461 55.4532 89.2409 55.5584 89.2409C56.0227 89.2409 57.9538 89.2409 58.319 89.2904C58.9999 89.3956 59.2599 89.6555 59.3651 90.0763C59.4146 90.2805 59.4146 90.5404 59.4703 90.7508C59.4672 90.7719 59.469 90.7934 59.4757 90.8136C59.4824 90.8338 59.4937 90.8521 59.5087 90.8672C59.5238 90.8822 59.5421 90.8935 59.5623 90.9002C59.5825 90.9068 59.604 90.9087 59.6251 90.9055C59.7798 90.9055 59.7798 90.7013 59.7798 90.5404C59.7798 90.3795 59.885 89.6555 59.885 89.2409C59.9345 88.3064 60.0398 88.0032 60.0398 87.8361C60.0429 87.8151 60.041 87.7936 60.0344 87.7734C60.0277 87.7532 60.0164 87.7348 60.0014 87.7198C59.9863 87.7048 59.968 87.6935 59.9477 87.6868C59.9275 87.6801 59.9061 87.6783 59.885 87.6814C59.7798 87.6814 59.7303 87.7804 59.5693 87.9351C59.4084 88.0898 59.1546 88.195 58.6842 88.2507C58.2138 88.3064 56.0227 88.3064 55.5894 88.3064C55.4842 88.3064 55.4842 88.195 55.4842 88.0403V83.1948C55.4842 83.0401 55.5337 82.9844 55.5894 82.9844C56.0041 82.9844 58.0653 83.0401 58.35 83.0896C59.2908 83.1948 59.5013 83.4053 59.656 83.7704C59.7345 83.9863 59.7703 84.2154 59.7612 84.4449C59.7612 84.6553 59.8107 84.7048 59.916 84.7048C59.9438 84.7076 59.9718 84.7042 59.9982 84.6951C60.0246 84.6859 60.0486 84.671 60.0686 84.6516C60.0887 84.6321 60.1042 84.6085 60.1142 84.5825C60.1242 84.5564 60.1284 84.5284 60.1264 84.5006C60.1856 84.0904 60.2207 83.6772 60.2316 83.2629C60.253 82.8471 60.3047 82.4335 60.3864 82.0252C60.3864 81.92 60.3307 81.8644 60.2812 81.8644C60.2316 81.8644 60.0707 81.92 59.9655 81.92C59.8603 81.92 59.5013 81.9696 59.1361 82.0252C58.7709 82.0809 54.9085 82.0748 54.2834 82.0748C54.0234 82.0748 53.6025 82.0252 53.0826 82.0252C52.5626 82.0252 52.0427 81.9696 51.5228 81.9696C51.2071 81.9696 51.1019 82.0252 51.1019 82.18C51.1019 82.3347 51.2071 82.3347 51.4176 82.3347C51.628 82.3347 52.0365 82.3842 52.1975 82.3842C52.8164 82.5451 52.9835 82.8545 52.9835 83.4857C52.9835 84.1169 53.0331 84.6801 53.0331 87.601L53.0021 90.9612ZM65.2081 90.9612C65.2081 92.7311 65.2081 94.2411 65.1029 95.0765C65.0534 95.652 64.9482 96.0666 64.583 96.1223C64.3447 96.1864 64.0993 96.2196 63.8526 96.2213C63.6421 96.2213 63.5369 96.277 63.5369 96.3822C63.5369 96.4875 63.6917 96.537 63.9516 96.537C64.682 96.537 65.9385 96.4813 66.3532 96.4813C66.8731 96.4813 68.0739 96.537 69.38 96.537C69.5842 96.537 69.7452 96.4813 69.7452 96.3822C69.7452 96.2832 69.6399 96.2213 69.4295 96.2213C69.0972 96.2154 68.766 96.1823 68.4391 96.1223C67.8697 96.0666 67.7645 95.652 67.6592 95.0765C67.6035 94.2411 67.6035 92.7311 67.6035 90.9612V83.2444C67.6035 83.0401 67.6592 82.9349 67.7645 82.8854C67.9986 82.8115 68.2432 82.7759 68.4887 82.7802C69.2084 82.7932 69.8981 83.0708 70.426 83.56C70.8159 83.924 71.1206 84.3695 71.3186 84.8647C71.5165 85.36 71.6027 85.8928 71.5711 86.4252C71.5711 88.4054 70.0546 89.606 68.9591 89.606C68.5939 89.606 68.4391 89.7112 68.4391 89.8164C68.4391 89.9216 68.5939 89.9711 68.6496 90.0206H69.0643C69.6867 90.0524 70.3089 89.9552 70.8919 89.735C71.4749 89.5148 72.006 89.1764 72.4519 88.7411C72.8977 88.3057 73.2487 87.7829 73.4827 87.2055C73.7168 86.628 73.8288 86.0084 73.8118 85.3855C73.8136 84.5261 73.4754 83.7007 72.8709 83.0896C72.5615 82.7802 71.6763 81.9448 69.2747 81.9448C68.3896 81.9448 67.2383 82.05 66.4584 82.05C65.9385 82.05 64.682 81.9448 63.6917 81.9448C63.3822 81.9448 63.277 82.0005 63.277 82.1552C63.277 82.3099 63.3822 82.3099 63.5864 82.3099C63.7907 82.3099 64.2054 82.3594 64.3168 82.3594C64.9977 82.5203 65.1524 82.8297 65.1524 83.461C65.1524 84.0922 65.2081 84.6553 65.2081 87.5762V90.9612ZM80.3852 88.096C80.3578 88.0946 80.3319 88.083 80.3124 88.0636C80.293 88.0442 80.2814 88.0182 80.28 87.9908V87.5762C80.28 84.6553 80.28 84.086 80.3295 83.461C80.379 82.8359 80.4904 82.4646 81.0103 82.3594C81.2703 82.3594 81.4312 82.3099 81.5798 82.3099C81.7283 82.3099 81.9512 82.2542 81.9512 82.1552C81.9512 82.0562 81.7902 81.9448 81.5365 81.9448C80.7504 81.9448 79.5496 82.05 79.0606 82.05C78.5716 82.05 77.3399 81.9448 76.2938 81.9448C76.0339 81.9448 75.8791 82.0005 75.8791 82.1552C75.8791 82.3099 75.9843 82.3099 76.1886 82.3099C76.5043 82.3099 76.8076 82.3594 76.9747 82.3594C77.5936 82.5203 77.7546 82.8297 77.8103 83.461C77.866 84.0922 77.8598 84.6553 77.8598 87.5762V90.9612C77.8598 92.7311 77.8598 94.2411 77.7546 95.0765C77.6494 95.652 77.5503 96.0666 77.1851 96.1223C76.9639 96.1869 76.7347 96.2202 76.5043 96.2213C76.2443 96.2213 76.1886 96.277 76.1886 96.3822C76.1886 96.4875 76.2938 96.537 76.56 96.537C77.3399 96.537 78.5407 96.4813 79.0358 96.4813C79.531 96.4813 80.7566 96.537 82.0069 96.537C82.2668 96.537 82.4278 96.4813 82.4278 96.3822C82.4278 96.2832 82.3164 96.2213 82.1121 96.2213C81.7798 96.2157 81.4486 96.1826 81.1218 96.1223C80.5461 96.0666 80.4409 95.652 80.3914 95.0765C80.2862 94.2411 80.2862 92.7311 80.2862 90.9612V89.2409C80.2876 89.2135 80.2992 89.1876 80.3186 89.1681C80.338 89.1487 80.364 89.1372 80.3914 89.1357H87.7447C87.7942 89.1357 87.8994 89.1914 87.8994 89.2409V90.9612C87.8994 92.7311 87.8994 94.2411 87.7942 95.0765C87.689 95.652 87.5838 96.0666 87.2248 96.1223C87.0035 96.1869 86.7744 96.2202 86.5439 96.2213C86.2839 96.2213 86.2344 96.277 86.2344 96.3822C86.2344 96.4875 86.3396 96.537 86.6491 96.537C87.3795 96.537 88.5741 96.4813 89.0507 96.4813C89.5273 96.4813 90.7714 96.537 92.0713 96.537C92.2817 96.537 92.4365 96.4813 92.4365 96.3822C92.4365 96.2832 92.3374 96.2213 92.127 96.2213C91.7947 96.2157 91.4635 96.1826 91.1366 96.1223C90.561 96.0666 90.4558 95.652 90.4001 95.0765C90.301 94.2411 90.301 92.7311 90.301 90.9612V87.5762C90.301 84.6553 90.301 84.086 90.3505 83.461C90.4001 82.8359 90.5115 82.4646 91.0314 82.3594C91.2914 82.3594 91.4461 82.3099 91.6009 82.3099C91.7556 82.3099 91.9661 82.2542 91.9661 82.1552C91.9661 82.0562 91.8113 81.9448 91.5513 81.9448C90.7714 81.9448 89.5707 82.05 89.0755 82.05C88.5803 82.05 87.3547 81.9448 86.3149 81.9448C86.0549 81.9448 85.894 82.0005 85.894 82.1552C85.894 82.3099 85.9992 82.3099 86.2592 82.3099C86.5191 82.3099 86.8348 82.3594 86.9896 82.3594C87.6085 82.5203 87.7695 82.8297 87.8252 83.461C87.8809 84.0922 87.8747 84.6553 87.8747 87.5762V87.9908C87.8747 88.0403 87.7695 88.096 87.7199 88.096H80.3852ZM96.6083 90.9612C96.6083 92.7311 96.6083 94.2411 96.5031 95.0765C96.4474 95.652 96.3421 96.0666 95.977 96.1223C95.7389 96.1873 95.4933 96.2205 95.2466 96.2213C95.0423 96.2213 94.9371 96.277 94.9371 96.3822C94.9371 96.4875 95.0918 96.537 95.3518 96.537C96.1379 96.537 97.3387 96.4813 97.7039 96.4813C98.0691 96.4813 99.4246 96.537 100.52 96.537C100.78 96.537 100.935 96.4813 100.935 96.3822C100.935 96.2832 100.83 96.2213 100.675 96.2213C100.36 96.2075 100.045 96.1745 99.7341 96.1223C99.1646 96.0666 99.0594 95.652 99.0037 95.0765C98.9047 94.2411 98.9047 92.7311 98.9047 90.9612V90.6518C98.9047 90.5404 98.948 90.4909 99.0594 90.4909L100.724 90.5404C100.793 90.5389 100.862 90.5524 100.925 90.5802C100.988 90.6081 101.044 90.6494 101.09 90.7013C101.35 90.9612 102.235 92.267 102.947 93.3623C104.042 94.8166 104.803 95.7572 105.608 96.1718C106.262 96.4725 106.983 96.5983 107.7 96.537H109.557C109.768 96.537 109.922 96.537 109.922 96.3822C109.922 96.2275 109.823 96.2213 109.662 96.2213C109.501 96.2213 109.347 96.1718 109.142 96.1718C108.307 95.9534 107.56 95.4796 107.007 94.8166C105.856 93.616 104.531 91.8957 102.779 89.7607C104.76 88.195 105.336 86.8955 105.336 85.4288C105.331 84.9168 105.211 84.4123 104.985 83.9528C104.759 83.4932 104.433 83.0904 104.03 82.774C102.952 82.1615 101.721 81.8715 100.483 81.9386C99.8641 81.9386 98.3971 82.0438 97.772 82.0438C97.3573 82.0438 96.1565 81.9386 95.1104 81.9386C94.7947 81.9386 94.6957 81.9943 94.6957 82.149C94.6957 82.3037 94.7947 82.3037 95.0052 82.3037C95.2156 82.3037 95.6241 82.3532 95.7913 82.3532C96.4102 82.5141 96.5712 82.8236 96.6269 83.4548V90.9612H96.6083ZM98.9047 83.2444C98.9047 83.0896 98.948 82.9844 99.0594 82.9349C99.4037 82.8863 99.7519 82.8697 100.099 82.8854C101.244 82.8854 103.021 83.6652 103.021 86.4252C103.021 87.9908 102.501 88.9005 101.925 89.2904C101.512 89.5653 101.011 89.6777 100.52 89.606C100.029 89.6065 99.5394 89.5546 99.0594 89.4513C98.948 89.3956 98.9047 89.2904 98.9047 89.0862V83.2444ZM116.793 96.7969C121.695 96.7969 124.771 93.3066 124.771 88.9315C124.771 84.5563 121.745 81.6849 116.948 81.6849C111.154 81.6849 108.963 85.9549 108.963 89.2409C108.963 92.6816 111.21 96.7969 116.793 96.7969V96.7969ZM117.573 95.8624C113.859 95.8624 111.68 92.6816 111.68 88.6715C111.68 83.8756 114.156 82.6193 116.428 82.6193C119.56 82.6193 122.06 85.3298 122.06 89.606C122.06 95.1755 118.928 95.8624 117.573 95.8624V95.8624ZM131.19 87.5762C131.19 84.6553 131.19 84.086 131.239 83.461C131.289 82.8359 131.45 82.4646 131.97 82.3594C132.18 82.3594 132.49 82.3099 132.7 82.3099C132.911 82.3099 133.065 82.2542 133.065 82.1552C133.065 82.0562 132.911 81.9448 132.651 81.9448C131.914 81.9448 130.509 82.05 130.045 82.05C129.581 82.05 128.318 81.9448 127.377 81.9448C127.117 81.9448 126.962 82.0005 126.962 82.1552C126.962 82.3099 127.068 82.3099 127.272 82.3099C127.476 82.3099 127.798 82.3594 127.953 82.3594C128.572 82.5203 128.733 82.8297 128.733 83.461C128.733 84.0922 128.788 84.6553 128.788 87.5762V90.9612C128.788 92.7311 128.788 94.2411 128.683 95.0765C128.634 95.652 128.522 96.0666 128.163 96.1223C127.923 96.1867 127.675 96.22 127.427 96.2213C127.222 96.2213 127.117 96.277 127.117 96.3822C127.117 96.4875 127.272 96.537 127.532 96.537H128.838C129.204 96.4964 129.572 96.4777 129.94 96.4813C130.769 96.4813 131.45 96.537 132.335 96.537C133.22 96.537 134.161 96.5865 135.566 96.5865C136.556 96.5865 136.662 96.537 136.767 96.0666C136.927 95.3453 137.032 94.613 137.083 93.876C137.083 93.616 137.083 93.5665 136.922 93.5665C136.761 93.5665 136.717 93.6717 136.717 93.8265C136.652 94.2484 136.472 94.6443 136.197 94.9713C135.727 95.4911 134.997 95.5468 133.951 95.5468C132.44 95.5468 131.97 95.3921 131.605 95.1322C131.19 94.7671 131.19 93.4118 131.19 90.9612V87.5762ZM146.045 96.7969C150.947 96.7969 154.024 93.3066 154.024 88.9315C154.024 84.5563 151.053 81.6849 146.256 81.6849C140.462 81.6849 138.277 85.9549 138.277 89.2409C138.277 92.6816 140.518 96.7969 146.045 96.7969V96.7969ZM146.881 95.8624C143.167 95.8624 140.932 92.6816 140.932 88.6715C140.932 83.8756 143.439 82.6193 145.68 82.6193C148.861 82.6193 151.313 85.3298 151.313 89.606C151.313 95.1755 148.218 95.8624 146.881 95.8624V95.8624ZM169.987 93.1519V90.8065C170.036 90.1258 170.197 89.8164 170.717 89.7112C170.977 89.7112 171.082 89.6555 171.237 89.6555C171.392 89.6555 171.497 89.606 171.497 89.5008C171.497 89.3956 171.392 89.3461 171.132 89.3461C170.513 89.3461 169.467 89.3956 168.835 89.3956C168.204 89.3956 167.065 89.3461 166.075 89.3461C165.815 89.3461 165.654 89.3461 165.654 89.5008C165.654 89.6555 165.765 89.6555 165.97 89.6555C166.174 89.6555 166.545 89.7112 166.7 89.7112C166.828 89.7255 166.952 89.7656 167.064 89.829C167.176 89.8925 167.274 89.978 167.352 90.0803C167.43 90.1827 167.487 90.2998 167.518 90.4246C167.55 90.5495 167.556 90.6794 167.536 90.8065V94.9218C167.558 95.0663 167.535 95.2143 167.469 95.3451C167.404 95.4759 167.3 95.5832 167.17 95.652C166.648 95.8253 166.098 95.8968 165.549 95.8624C161.488 95.8624 158.827 92.7311 158.827 88.5663C158.827 86.221 159.508 84.7605 160.597 83.8756C161.668 83.0077 163.029 82.5786 164.404 82.675C165.988 82.6048 167.539 83.1453 168.736 84.185C169.124 84.6157 169.344 85.1714 169.355 85.7506C169.405 85.9054 169.461 86.0106 169.566 86.0106C169.671 86.0106 169.77 85.9054 169.77 85.5959C169.747 84.5498 169.799 83.5034 169.925 82.4646C169.925 82.3099 169.875 82.2542 169.671 82.2047C169.144 82.1891 168.619 82.1207 168.105 82.0005C166.983 81.8213 165.85 81.7158 164.713 81.6849C162.894 81.5988 161.088 82.0278 159.501 82.9226C158.453 83.6021 157.596 84.538 157.011 85.6416C156.426 86.7452 156.133 87.9798 156.159 89.2285C156.159 94.5938 160.331 96.7845 165.078 96.7845C166.667 96.8346 168.249 96.55 169.721 95.9491C169.981 95.7943 169.981 95.7448 169.981 95.2188L169.987 93.1519ZM177.551 93.1519C177.551 93.4613 177.551 94.2411 177.501 95.0765C177.445 95.652 177.235 96.0666 176.882 96.1223C176.661 96.1869 176.432 96.2202 176.201 96.2213C175.991 96.2213 175.886 96.277 175.886 96.3822C175.886 96.4875 176.04 96.537 176.306 96.537C177.031 96.537 178.231 96.4813 178.782 96.4813C179.333 96.4813 180.509 96.537 181.71 96.537C181.97 96.537 182.125 96.4813 182.125 96.3822C182.125 96.2832 182.019 96.2213 181.809 96.2213C181.495 96.2129 181.183 96.1798 180.874 96.1223C180.255 96.0666 180.094 95.652 180.039 95.0765C179.983 94.2411 179.983 93.4613 179.983 93.1519V91.5306C179.941 90.8734 180.049 90.2152 180.299 89.606C181.42 87.5056 182.66 85.4704 184.013 83.5105C184.259 83.1017 184.621 82.7745 185.052 82.5698C185.306 82.4213 185.589 82.3324 185.882 82.3099C186.098 82.3099 186.253 82.2542 186.253 82.0995C186.253 81.9448 186.098 81.9448 185.882 81.9448C185.523 81.9448 184.273 82.05 183.852 82.05C183.276 82.05 182.651 81.9448 181.995 81.9448C181.735 81.9448 181.63 82.0005 181.63 82.1552C181.63 82.3099 181.84 82.3099 181.995 82.3594C182.112 82.3674 182.222 82.421 182.301 82.5089C182.38 82.5968 182.421 82.7119 182.416 82.8297C182.384 83.1718 182.296 83.5064 182.156 83.8199C181.89 84.3954 179.438 88.6715 179.228 89.1357C178.918 88.5663 176.257 83.9251 175.941 83.3557C175.845 83.1598 175.776 82.9516 175.737 82.7369C175.738 82.6561 175.763 82.5774 175.81 82.5112C175.856 82.4449 175.921 82.3942 175.997 82.3656C176.313 82.2604 176.418 82.2604 176.418 82.1614C176.41 82.0984 176.378 82.0409 176.328 82.0016C176.278 81.9622 176.215 81.944 176.152 81.951C175.267 81.951 174.487 82.0562 174.066 82.0562C173.447 82.0562 171.98 81.951 171.59 81.951C171.379 81.951 171.225 82.0562 171.225 82.1614C171.225 82.2666 171.379 82.3161 171.54 82.3161C171.819 82.3315 172.088 82.4212 172.32 82.576C172.885 82.9246 173.354 83.4098 173.682 83.987C174.357 84.9771 176.963 89.2471 177.068 89.5565C177.406 90.1599 177.569 90.8457 177.538 91.5368L177.551 93.1519Z" fill="#464646"/>
<path fill-rule="evenodd" clip-rule="evenodd" d="M27.4202 89.5999V88.189L1.0708 89.5999L27.4202 91.0542V89.5999Z" fill="#08588A"/>
<path fill-rule="evenodd" clip-rule="evenodd" d="M191.645 89.6432V91.0542L217.994 89.6432L191.645 88.189V89.6432Z" fill="#08588A"/>
</g>
<defs>
<clipPath id="clip0">
<rect width="218" height="96" fill="white" transform="translate(0 0.796875)"/>
</clipPath>
</defs>
</svg>
