<svg width="80" height="70" viewBox="0 0 80 70" fill="none" xmlns="http://www.w3.org/2000/svg">
<path fill-rule="evenodd" clip-rule="evenodd" d="M6.46332 6.38697C10.6282 2.29656 16.2614 0.000732422 22.1331 0.000732422C28.0048 0.000732422 33.638 2.29656 37.8029 6.38697L40.0043 8.57593V63.7938C36.8913 63.7938 33.785 60.457 35.7366 53.8367C38.2013 45.4879 40.531 37.5663 29.8481 32.828C28.1262 32.0605 25.0604 32.3475 23.5343 33.4954C23.0911 33.8068 22.7619 34.2516 22.5957 34.7634C22.4597 35.2324 22.4412 35.7271 22.5417 36.2049C22.6903 36.9288 22.9968 37.612 23.4398 38.207C23.6269 38.4468 23.71 38.7503 23.6708 39.0507C23.6315 39.351 23.4731 39.6237 23.2304 39.8087C22.9878 39.9936 22.6807 40.0757 22.3767 40.0369C22.0728 39.9981 21.7969 39.8416 21.6098 39.6018C20.9393 38.7074 20.478 37.6772 20.2592 36.5853C20.0891 35.7477 20.1285 34.8817 20.374 34.0626C20.6217 33.2552 21.0889 32.5303 21.7246 31.9671C21.0569 32.0413 20.4026 32.2052 19.7798 32.4543C18.7044 32.8841 17.7976 33.6446 17.1935 34.6232C16.6414 35.5272 16.3517 36.5638 16.3561 37.6197C16.3206 38.7864 16.7033 39.928 17.4366 40.8431C17.6109 41.0757 17.6893 41.365 17.6559 41.6526C17.6224 41.9402 17.4797 42.2044 17.2565 42.3919C17.0334 42.5793 16.7465 42.676 16.4539 42.6623C16.1614 42.6485 15.885 42.5255 15.6808 42.3179C14.597 40.9992 14.0184 39.3451 14.0467 37.6464C14.0493 36.1703 14.4552 34.7223 15.2217 33.4553C16.0796 32.0646 17.3675 30.9835 18.8952 30.3721C19.8409 29.9946 20.8417 29.7693 21.8596 29.7047C21.0437 28.7365 20.4805 27.5854 20.2191 26.3521C19.9578 25.1188 20.0063 23.8411 20.3605 22.6306C20.4735 22.3709 20.6796 22.1615 20.9392 22.0426C21.1987 21.9237 21.4936 21.9036 21.7672 21.9863C22.0408 22.069 22.2739 22.2486 22.4218 22.4907C22.5697 22.7327 22.622 23.0202 22.5687 23.298C22.5687 23.298 21.056 27.7694 26.492 30.0718C26.6138 30.0901 26.7321 30.1261 26.8432 30.1786C26.9752 30.2173 27.1004 30.2759 27.2146 30.3521L27.6332 30.4922C27.9033 24.4859 32.4142 23.9187 33.184 17.9457C34.3657 9.73714 26.6406 7.34797 19.1248 11.3188C9.16442 16.5843 3.45158 31.4265 7.84088 41.8041C12.9055 53.7633 29.4497 54.3839 30.8881 43.1388C31.4688 38.6274 29.3012 37.4996 28.187 34.5765C37.8029 38.534 35.7095 45.6481 33.4946 53.156C32.5659 55.9957 31.8881 58.9096 31.4688 61.8651L24.4392 54.9712C27.6467 53.9969 31.5633 51.7078 32.448 46.2954C31.6887 48.3393 30.309 50.1015 28.4976 51.3407C24.8781 53.83 20.1174 53.9435 16.059 52.522C13.7286 51.685 11.6019 50.3741 9.81643 48.6739C8.03091 46.9736 6.62633 44.922 5.6935 42.6516C3.10719 36.5452 3.71494 29.3844 6.11217 23.298C6.65226 21.9396 7.28626 20.6196 8.0097 19.3472C8.0097 19.3472 3.50561 22.297 2.12804 31.2664C0.17947 27.1788 -0.449724 22.5977 0.325808 18.1447C1.10134 13.6917 3.24406 9.58216 6.46332 6.37362V6.38697ZM41.0915 69.0593L40.2406 70.007C40.5445 69.6933 40.8281 69.3796 41.0915 69.0593ZM73.5048 6.38697C69.341 2.29697 63.7089 0.00131286 57.8384 0.00131286C51.9678 0.00131286 46.3357 2.29697 42.1719 6.38697L40.0043 8.57593V63.7938C43.1106 63.7938 46.2236 60.457 44.2653 53.8367C41.8073 45.4879 39.4708 37.5663 50.1605 32.828C51.1945 32.4552 52.3013 32.3215 53.3958 32.4372C54.4903 32.5529 55.5434 32.9149 56.4743 33.4954C56.9135 33.8108 57.2417 34.2542 57.4129 34.7634C57.5433 35.2335 57.5595 35.7274 57.4602 36.2049C57.3163 36.9291 57.0119 37.6128 56.5688 38.207C56.402 38.4472 56.3345 38.7414 56.3801 39.0292C56.4257 39.3171 56.581 39.5768 56.8141 39.7552C57.0472 39.9335 57.3405 40.017 57.6339 39.9884C57.9273 39.9599 58.1986 39.8216 58.3921 39.6018C59.0651 38.7089 59.5267 37.678 59.7426 36.5853C59.909 35.7474 59.8697 34.8823 59.6278 34.0626C59.3749 33.2576 58.9086 32.534 58.2773 31.9671C58.9428 32.0413 59.5949 32.2052 60.2153 32.4543C61.2932 32.8829 62.2025 33.6435 62.8084 34.6232C63.3545 35.5297 63.6437 36.5647 63.6457 37.6197C63.6784 38.786 63.296 39.9267 62.5653 40.8431C62.3909 41.0757 62.3126 41.365 62.346 41.6526C62.3794 41.9402 62.5221 42.2044 62.7453 42.3919C62.9685 42.5793 63.2554 42.676 63.5479 42.6623C63.8405 42.6485 64.1168 42.5255 64.321 42.3179C65.3999 40.9969 65.9757 39.3438 65.9484 37.6464C65.9516 36.1704 65.5477 34.7215 64.7802 33.4553C63.9194 32.0644 62.6293 30.9836 61.0999 30.3721C60.1544 29.9939 59.1535 29.7686 58.1355 29.7047C58.9529 28.7374 59.5172 27.5862 59.7786 26.3526C60.04 25.1191 59.9906 23.8409 59.6346 22.6306C59.5216 22.3709 59.3155 22.1615 59.0559 22.0426C58.7964 21.9237 58.5015 21.9036 58.2279 21.9863C57.9543 22.069 57.7212 22.2486 57.5733 22.4907C57.4254 22.7327 57.3731 23.0202 57.4264 23.298C57.4264 23.298 58.9391 27.7694 53.5031 30.0718C53.3835 30.09 53.2674 30.126 53.1587 30.1786C53.0261 30.2159 52.9006 30.2745 52.7873 30.3521L52.3686 30.4922C52.0985 24.4859 47.5809 23.9187 46.8111 17.9457C45.6294 9.73714 53.3545 7.34797 60.8703 11.3188C70.8509 16.5843 76.5638 31.4065 72.1745 41.7841C67.1166 53.7432 50.5656 54.3639 49.1273 43.1188C48.5466 38.6074 50.7209 37.4795 51.8284 34.5565C42.2125 38.514 44.3126 45.6281 46.5207 53.1359C47.4494 55.9757 48.1272 58.8896 48.5466 61.8451L55.5829 54.9512C52.3686 53.9768 48.4588 51.6878 47.5674 46.2754C48.329 48.318 49.7082 50.0795 51.5178 51.3207C55.144 53.81 59.9047 53.9234 63.9631 52.5019C66.2924 51.6632 68.4182 50.3516 70.2035 48.6516C71.9887 46.9516 73.394 44.9009 74.3286 42.6316C76.9082 36.5252 76.3004 29.3644 73.9032 23.278C73.3631 21.9196 72.7291 20.5996 72.0056 19.3272C72.0056 19.3272 76.5368 22.2169 77.9076 31.1996C79.8394 27.1196 80.4564 22.5516 79.6749 18.1137C78.8935 13.6757 76.7514 9.58219 73.5385 6.38697H73.5048Z" fill="url(#paint0_linear)"/>
<defs>
<linearGradient id="paint0_linear" x1="39.9999" y1="63" x2="39.9999" y2="-2.84533e-07" gradientUnits="userSpaceOnUse">
<stop stop-color="#0F204D"/>
<stop offset="0.142857" stop-color="#34275E"/>
<stop offset="0.285714" stop-color="#562C6A"/>
<stop offset="0.428571" stop-color="#792E71"/>
<stop offset="0.571429" stop-color="#9C3174"/>
<stop offset="0.714286" stop-color="#BC3571"/>
<stop offset="0.857143" stop-color="#DA3F69"/>
<stop offset="1" stop-color="#F2505D"/>
</linearGradient>
</defs>
</svg>
